<svg xmlns="http://www.w3.org/2000/svg" xmlns:xlink="http://www.w3.org/1999/xlink" version="1.1" class="marks" width="314" height="338" viewBox="0 0 314 338"><rect width="314" height="338" fill="white"/><g fill="none" stroke-miterlimit="10" transform="translate(9,27)"><g class="mark-group role-frame root" role="graphics-object" aria-roledescription="group mark container"><g transform="translate(0,0)"><path class="background" aria-hidden="true" d="M0.5,0.5h300v300h-300Z" stroke="#ddd"/><g><g class="mark-line role-mark layer_0_layer_0_marks" role="graphics-object" aria-roledescription="line mark container"><path aria-label="x: 0; y: 0; step_id: 0" role="graphics-symbol" aria-roledescription="line mark" d="M0,300L4.281,292.412L35.648,276.574L50.001,266.764L104.416,248.759L118.014,230.917L130.922,204.98L130.621,188.666L144.148,135.943L152.333,120.444L177.439,100.212L170.542,88.788L201.379,95.473L209.546,93.901L235.958,86.122L240.814,77.209L254.191,58.829L251.406,59.652L256.897,54.228L264.755,56.007L292.963,21.967" stroke="#557086" stroke-width="2"/></g><g class="mark-symbol role-mark layer_0_layer_1_marks" role="graphics-object" aria-roledescription="symbol mark container"><path aria-label="x: 0; y: 0; step_id: 0" role="graphics-symbol" aria-roledescription="point" transform="translate(0,300)" d="M2.739,0A2.739,2.739,0,1,1,-2.739,0A2.739,2.739,0,1,1,2.739,0" fill="#4c78a8" stroke-width="2" opacity="1"/><path aria-label="x: 0.0228312052786; y: 0.0455308891833; step_id: 0" role="graphics-symbol" aria-roledescription="point" transform="translate(4.280850989744067,292.41151846945286)" d="M2.739,0A2.739,2.739,0,1,1,-2.739,0A2.739,2.739,0,1,1,2.739,0" fill="#4c78a8" stroke-width="2" opacity="1"/><path aria-label="x: 0.19012029469; y: 0.140557929873; step_id: 1" role="graphics-symbol" aria-roledescription="point" transform="translate(35.64755525439978,276.5736783544222)" d="M2.739,0A2.739,2.739,0,1,1,-2.739,0A2.739,2.739,0,1,1,2.739,0" fill="#4c78a8" stroke-width="2" opacity="1"/><path aria-label="x: 0.266671299934; y: 0.199418142438; step_id: 2" role="graphics-symbol" aria-roledescription="point" transform="translate(50.0008687376976,266.76364292701084)" d="M2.739,0A2.739,2.739,0,1,1,-2.739,0A2.739,2.739,0,1,1,2.739,0" fill="#4c78a8" stroke-width="2" opacity="1"/><path aria-label="x: 0.556882858276; y: 0.307443112135; step_id: 3" role="graphics-symbol" aria-roledescription="point" transform="translate(104.41553592681885,248.75948131084442)" d="M2.739,0A2.739,2.739,0,1,1,-2.739,0A2.739,2.739,0,1,1,2.739,0" fill="#4c78a8" stroke-width="2" opacity="1"/><path aria-label="x: 0.629406690598; y: 0.414500057697; step_id: 4" role="graphics-symbol" aria-roledescription="point" transform="translate(118.01375448703766,230.91665705045062)" d="M2.739,0A2.739,2.739,0,1,1,-2.739,0A2.739,2.739,0,1,1,2.739,0" fill="#4c78a8" stroke-width="2" opacity="1"/><path aria-label="x: 0.698251605034; y: 0.570117533207; step_id: 5" role="graphics-symbol" aria-roledescription="point" transform="translate(130.92217594385147,204.9804111321767)" d="M2.739,0A2.739,2.739,0,1,1,-2.739,0A2.739,2.739,0,1,1,2.739,0" fill="#4c78a8" stroke-width="2" opacity="1"/><path aria-label="x: 0.696645915508; y: 0.668003559113; step_id: 6" role="graphics-symbol" aria-roledescription="point" transform="translate(130.62110915780067,188.66607348124188)" d="M2.739,0A2.739,2.739,0,1,1,-2.739,0A2.739,2.739,0,1,1,2.739,0" fill="#4c78a8" stroke-width="2" opacity="1"/><path aria-label="x: 0.768791794777; y: 0.984341323376; step_id: 7" role="graphics-symbol" aria-roledescription="point" transform="translate(144.14846152067184,135.94311277071637)" d="M2.739,0A2.739,2.739,0,1,1,-2.739,0A2.739,2.739,0,1,1,2.739,0" fill="#4c78a8" stroke-width="2" opacity="1"/><path aria-label="x: 0.812440633774; y: 1.0773383379; step_id: 8" role="graphics-symbol" aria-roledescription="point" transform="translate(152.3326188325882,120.44361035029095)" d="M2.739,0A2.739,2.739,0,1,1,-2.739,0A2.739,2.739,0,1,1,2.739,0" fill="#4c78a8" stroke-width="2" opacity="1"/><path aria-label="x: 0.946343481541; y: 1.19872617722; step_id: 9" role="graphics-symbol" aria-roledescription="point" transform="translate(177.4394027888775,100.21230379740396)" d="M2.739,0A2.739,2.739,0,1,1,-2.739,0A2.739,2.739,0,1,1,2.739,0" fill="#4c78a8" stroke-width="2" opacity="1"/><path aria-label="x: 0.909555792809; y: 1.26727437973; step_id: 10" role="graphics-symbol" aria-roledescription="point" transform="translate(170.54171115159988,88.78760337829588)" d="M2.739,0A2.739,2.739,0,1,1,-2.739,0A2.739,2.739,0,1,1,2.739,0" fill="#4c78a8" stroke-width="2" opacity="1"/><path aria-label="x: 1.07402384281; y: 1.22716236115; step_id: 11" role="graphics-symbol" aria-roledescription="point" transform="translate(201.3794705271721,95.47293980916342)" d="M2.739,0A2.739,2.739,0,1,1,-2.739,0A2.739,2.739,0,1,1,2.739,0" fill="#4c78a8" stroke-width="2" opacity="1"/><path aria-label="x: 1.11757707596; y: 1.23659694195; step_id: 12" role="graphics-symbol" aria-roledescription="point" transform="translate(209.54570174217224,93.90050967534384)" d="M2.739,0A2.739,2.739,0,1,1,-2.739,0A2.739,2.739,0,1,1,2.739,0" fill="#4c78a8" stroke-width="2" opacity="1"/><path aria-label="x: 1.25844323635; y: 1.28326618671; step_id: 13" role="graphics-symbol" aria-roledescription="point" transform="translate(235.95810681581497,86.1223022143046)" d="M2.739,0A2.739,2.739,0,1,1,-2.739,0A2.739,2.739,0,1,1,2.739,0" fill="#4c78a8" stroke-width="2" opacity="1"/><path aria-label="x: 1.28434276581; y: 1.33674645424; step_id: 14" role="graphics-symbol" aria-roledescription="point" transform="translate(240.81426858901978,77.20892429351807)" d="M2.739,0A2.739,2.739,0,1,1,-2.739,0A2.739,2.739,0,1,1,2.739,0" fill="#4c78a8" stroke-width="2" opacity="1"/><path aria-label="x: 1.35568547249; y: 1.4470230341; step_id: 15" role="graphics-symbol" aria-roledescription="point" transform="translate(254.19102609157562,58.82949431737264)" d="M2.739,0A2.739,2.739,0,1,1,-2.739,0A2.739,2.739,0,1,1,2.739,0" fill="#4c78a8" stroke-width="2" opacity="1"/><path aria-label="x: 1.34083092213; y: 1.44208979607; step_id: 16" role="graphics-symbol" aria-roledescription="point" transform="translate(251.40579789876938,59.65170065561932)" d="M2.739,0A2.739,2.739,0,1,1,-2.739,0A2.739,2.739,0,1,1,2.739,0" fill="#4c78a8" stroke-width="2" opacity="1"/><path aria-label="x: 1.37011742592; y: 1.47463393211; step_id: 17" role="graphics-symbol" aria-roledescription="point" transform="translate(256.8970173597336,54.22767798105876)" d="M2.739,0A2.739,2.739,0,1,1,-2.739,0A2.739,2.739,0,1,1,2.739,0" fill="#4c78a8" stroke-width="2" opacity="1"/><path aria-label="x: 1.41202580929; y: 1.4639570713; step_id: 18" role="graphics-symbol" aria-roledescription="point" transform="translate(264.75483924150467,56.007154782613135)" d="M2.739,0A2.739,2.739,0,1,1,-2.739,0A2.739,2.739,0,1,1,2.739,0" fill="#4c78a8" stroke-width="2" opacity="1"/><path aria-label="x: 1.562469244; y: 1.66819632053; step_id: 19" role="graphics-symbol" aria-roledescription="point" transform="translate(292.962983250618,21.96727991104127)" d="M2.739,0A2.739,2.739,0,1,1,-2.739,0A2.739,2.739,0,1,1,2.739,0" fill="#4c78a8" stroke-width="2" opacity="1"/></g><g class="mark-symbol role-mark layer_1_marks" role="graphics-object" aria-roledescription="symbol mark container"><path aria-label="x: 0; y: 0" role="graphics-symbol" aria-roledescription="circle" transform="translate(0,300)" d="M3.873,0A3.873,3.873,0,1,1,-3.873,0A3.873,3.873,0,1,1,3.873,0" fill="#ff0000" stroke-width="2" opacity="0.7"/><path aria-label="x: 1; y: 1" role="graphics-symbol" aria-roledescription="circle" transform="translate(187.5,133.33333333333331)" d="M3.873,0A3.873,3.873,0,1,1,-3.873,0A3.873,3.873,0,1,1,3.873,0" fill="#ff0000" stroke-width="2" opacity="0.7"/></g><g class="mark-text role-mark layer_2_marks" role="graphics-object" aria-roledescription="text mark container"><text aria-label="x: 0; y: 0; label: Start" role="graphics-symbol" aria-roledescription="text mark" text-anchor="middle" transform="translate(20,304)" font-family="RedHatDisplay" font-size="12px" font-weight="bold" fill="black">Start</text><text aria-label="x: 1; y: 1; label: End" role="graphics-symbol" aria-roledescription="text mark" text-anchor="middle" transform="translate(207.5,137.33333333333331)" font-family="RedHatDisplay" font-size="12px" font-weight="bold" fill="black">End</text></g><g class="mark-group role-title"><g transform="translate(150,-22)"><path class="background" aria-hidden="true" d="M0,0h0v0h0Z" pointer-events="none"/><g><g class="mark-text role-title-text" role="graphics-symbol" aria-roledescription="title" aria-label="Title text 'Trajectory taking by the Brittle Star'" pointer-events="none"><text text-anchor="middle" transform="translate(0,14)" font-family="RedHatDisplay" font-size="18px" font-weight="bold" fill="#000" opacity="1">Trajectory taking by the Brittle Star</text></g></g><path class="foreground" aria-hidden="true" d="" pointer-events="none" display="none"/></g></g></g><path class="foreground" aria-hidden="true" d="" display="none"/></g></g></g></svg>