<svg xmlns="http://www.w3.org/2000/svg" xmlns:xlink="http://www.w3.org/1999/xlink" version="1.1" class="marks" width="559" height="269" viewBox="0 0 559 269"><rect width="559" height="269" fill="white"/><g fill="none" stroke-miterlimit="10" transform="translate(36,80)"><g class="mark-group role-frame root" role="graphics-object" aria-roledescription="group mark container"><g transform="translate(0,0)"><path class="background" aria-hidden="true" d="M0,0h500v150h-500Z"/><g><g class="mark-group role-axis" role="graphics-symbol" aria-roledescription="axis" aria-label="X-axis titled 'Training episode' for a linear scale with values from 0 to 600"><g transform="translate(0.5,150.5)"><path class="background" aria-hidden="true" d="M0,0h0v0h0Z" pointer-events="none"/><g><g class="mark-rule role-axis-tick" pointer-events="none"><line transform="translate(0,0)" x2="0" y2="5" stroke="#888" stroke-width="1" opacity="1"/><line transform="translate(42,0)" x2="0" y2="5" stroke="#888" stroke-width="1" opacity="1"/><line transform="translate(83,0)" x2="0" y2="5" stroke="#888" stroke-width="1" opacity="1"/><line transform="translate(125,0)" x2="0" y2="5" stroke="#888" stroke-width="1" opacity="1"/><line transform="translate(167,0)" x2="0" y2="5" stroke="#888" stroke-width="1" opacity="1"/><line transform="translate(208,0)" x2="0" y2="5" stroke="#888" stroke-width="1" opacity="1"/><line transform="translate(250,0)" x2="0" y2="5" stroke="#888" stroke-width="1" opacity="1"/><line transform="translate(292,0)" x2="0" y2="5" stroke="#888" stroke-width="1" opacity="1"/><line transform="translate(333,0)" x2="0" y2="5" stroke="#888" stroke-width="1" opacity="1"/><line transform="translate(375,0)" x2="0" y2="5" stroke="#888" stroke-width="1" opacity="1"/><line transform="translate(417,0)" x2="0" y2="5" stroke="#888" stroke-width="1" opacity="1"/><line transform="translate(458,0)" x2="0" y2="5" stroke="#888" stroke-width="1" opacity="1"/><line transform="translate(500,0)" x2="0" y2="5" stroke="#888" stroke-width="1" opacity="1"/></g><g class="mark-text role-axis-label" pointer-events="none"><text text-anchor="start" transform="translate(0,15)" font-family="RedHatDisplay" font-size="10px" fill="#000" opacity="1">0</text><text text-anchor="middle" transform="translate(41.666666666666664,15)" font-family="RedHatDisplay" font-size="10px" fill="#000" opacity="1">50</text><text text-anchor="middle" transform="translate(83.33333333333333,15)" font-family="RedHatDisplay" font-size="10px" fill="#000" opacity="1">100</text><text text-anchor="middle" transform="translate(125,15)" font-family="RedHatDisplay" font-size="10px" fill="#000" opacity="1">150</text><text text-anchor="middle" transform="translate(166.66666666666666,15)" font-family="RedHatDisplay" font-size="10px" fill="#000" opacity="1">200</text><text text-anchor="middle" transform="translate(208.33333333333334,15)" font-family="RedHatDisplay" font-size="10px" fill="#000" opacity="1">250</text><text text-anchor="middle" transform="translate(250,15)" font-family="RedHatDisplay" font-size="10px" fill="#000" opacity="1">300</text><text text-anchor="middle" transform="translate(291.6666666666667,15)" font-family="RedHatDisplay" font-size="10px" fill="#000" opacity="1">350</text><text text-anchor="middle" transform="translate(333.3333333333333,15)" font-family="RedHatDisplay" font-size="10px" fill="#000" opacity="1">400</text><text text-anchor="middle" transform="translate(375,15)" font-family="RedHatDisplay" font-size="10px" fill="#000" opacity="1">450</text><text text-anchor="middle" transform="translate(416.6666666666667,15)" font-family="RedHatDisplay" font-size="10px" fill="#000" opacity="1">500</text><text text-anchor="middle" transform="translate(458.3333333333333,15)" font-family="RedHatDisplay" font-size="10px" fill="#000" opacity="1">550</text><text text-anchor="end" transform="translate(500,15)" font-family="RedHatDisplay" font-size="10px" fill="#000" opacity="1">600</text></g><g class="mark-rule role-axis-domain" pointer-events="none"><line transform="translate(0,0)" x2="500" y2="0" stroke="#888" stroke-width="1" opacity="1"/></g><g class="mark-text role-axis-title" pointer-events="none"><text text-anchor="middle" transform="translate(250,31)" font-family="RedHatDisplay" font-size="13px" font-weight="normal" fill="#000" opacity="1">Training episode</text></g></g><path class="foreground" aria-hidden="true" d="" pointer-events="none" display="none"/></g></g><g class="mark-group role-axis" role="graphics-symbol" aria-roledescription="axis" aria-label="Y-axis titled 'Amount of reached targets' for a linear scale with values from 0 to 7"><g transform="translate(0.5,0.5)"><path class="background" aria-hidden="true" d="M0,0h0v0h0Z" pointer-events="none"/><g><g class="mark-rule role-axis-tick" pointer-events="none"><line transform="translate(0,150)" x2="-5" y2="0" stroke="#888" stroke-width="1" opacity="1"/><line transform="translate(0,104)" x2="-5" y2="0" stroke="#888" stroke-width="1" opacity="1"/><line transform="translate(0,58)" x2="-5" y2="0" stroke="#888" stroke-width="1" opacity="1"/><line transform="translate(0,12)" x2="-5" y2="0" stroke="#888" stroke-width="1" opacity="1"/></g><g class="mark-text role-axis-label" pointer-events="none"><text text-anchor="end" transform="translate(-7,153)" font-family="RedHatDisplay" font-size="10px" fill="#000" opacity="1">0</text><text text-anchor="end" transform="translate(-7,106.84615384615384)" font-family="RedHatDisplay" font-size="10px" fill="#000" opacity="1">2</text><text text-anchor="end" transform="translate(-7,60.692307692307686)" font-family="RedHatDisplay" font-size="10px" fill="#000" opacity="1">4</text><text text-anchor="end" transform="translate(-7,14.538461538461531)" font-family="RedHatDisplay" font-size="10px" fill="#000" opacity="1">6</text></g><g class="mark-rule role-axis-domain" pointer-events="none"><line transform="translate(0,150)" x2="0" y2="-150" stroke="#888" stroke-width="1" opacity="1"/></g><g class="mark-text role-axis-title" pointer-events="none"><text text-anchor="middle" transform="translate(-17.619140625,75) rotate(-90) translate(0,-3)" font-family="RedHatDisplay" font-size="13px" font-weight="normal" fill="#000" opacity="1">Amount of reached targets</text></g></g><path class="foreground" aria-hidden="true" d="" pointer-events="none" display="none"/></g></g><g class="mark-group role-scope layer_0_pathgroup" role="graphics-object" aria-roledescription="group mark container"><g transform="translate(0,0)"><path class="background" aria-hidden="true" d="M0,0h500v150h-500Z"/><g><g class="mark-line role-mark layer_0_marks" role="graphics-object" aria-roledescription="line mark container"><path aria-label="Training episode: 0; Amount of reached targets: 0; brittle_star: 1" role="graphics-symbol" aria-roledescription="line mark" d="M0,150L0.833,150L1.667,150L2.5,150L3.333,150L4.167,150L5,150L5.833,150L6.667,150L7.5,150L8.333,150L9.167,150L10,150L10.833,150L11.667,150L12.5,150L13.333,150L14.167,150L15,150L15.833,150L16.667,150L17.5,150L18.333,150L19.167,150L20,150L20.833,150L21.667,150L22.5,150L23.333,150L24.167,150L25,150L25.833,150L26.667,150L27.5,150L28.333,150L29.167,150L30,150L30.833,150L31.667,150L32.5,150L33.333,150L34.167,150L35,150L35.833,150L36.667,150L37.5,150L38.333,150L39.167,150L40,150L40.833,150L41.667,150L42.5,150L43.333,150L44.167,150L45,149.437L45.833,149.437L46.667,149.437L47.5,149.437L48.333,149.437L49.167,149.437L50,149.437L50.833,149.437L51.667,149.437L52.5,148.874L53.333,148.874L54.167,148.874L55,148.311L55.833,148.311L56.667,148.311L57.5,148.311L58.333,147.749L59.167,147.749L60,147.749L60.833,147.749L61.667,147.749L62.5,147.749L63.333,147.749L64.167,147.749L65,147.186L65.833,147.186L66.667,146.623L67.5,146.623L68.333,146.06L69.167,145.497L70,144.934L70.833,144.934L71.667,144.934L72.5,144.371L73.333,143.809L74.167,143.809L75,143.809L75.833,143.809L76.667,143.809L77.5,142.683L78.333,142.683L79.167,142.683L80,142.683L80.833,142.12L81.667,141.557L82.5,140.432L83.333,139.869L84.167,139.869L85,139.306L85.833,136.492L86.667,134.803L87.5,133.677L88.333,133.114L89.167,132.552L90,131.426L90.833,128.612L91.667,126.923L92.5,125.235L93.333,124.672L94.167,121.295L95,119.606L95.833,117.355L96.667,115.103L97.5,114.54L98.333,113.415L99.167,112.852L100,110.6L100.833,110.038L101.667,108.349L102.5,107.786L103.333,105.535L104.167,106.098L105,105.535L105.833,104.972L106.667,105.535L107.5,104.409L108.333,103.846L109.167,103.283L110,102.72L110.833,101.595L111.667,100.469L112.5,97.092L113.333,96.529L114.167,94.841L115,94.278L115.833,92.589L116.667,90.338L117.5,88.649L118.333,85.272L119.167,82.458L120,82.458L120.833,81.895L121.667,80.206L122.5,77.955L123.333,77.392L124.167,76.266L125,78.518L125.833,77.955L126.667,77.955L127.5,77.392L128.333,79.081L129.167,77.955L130,78.518L130.833,77.392L131.667,76.266L132.5,74.578L133.333,72.326L134.167,72.889L135,71.201L135.833,69.512L136.667,68.386L137.5,70.075L138.333,67.261L139.167,66.698L140,66.135L140.833,63.321L141.667,64.447L142.5,61.632L143.333,59.381L144.167,58.255L145,57.129L145.833,57.692L146.667,58.818L147.5,57.692L148.333,56.567L149.167,56.004L150,53.752L150.833,54.315L151.667,53.189L152.5,53.752L153.333,55.441L154.167,56.567L155,57.692L155.833,59.381L156.667,61.632L157.5,59.944L158.333,58.255L159.167,54.878L160,56.567L160.833,58.255L161.667,58.818L162.5,58.818L163.333,58.818L164.167,58.255L165,59.381L165.833,59.944L166.667,60.507L167.5,61.069L168.333,59.944L169.167,59.381L170,58.818L170.833,57.129L171.667,57.129L172.5,56.567L173.333,54.878L174.167,54.878L175,56.567L175.833,54.878L176.667,57.129L177.5,57.129L178.333,55.441L179.167,56.004L180,54.315L180.833,54.315L181.667,53.752L182.5,55.441L183.333,54.878L184.167,55.441L185,54.315L185.833,56.004L186.667,53.752L187.5,53.189L188.333,52.064L189.167,51.501L190,49.25L190.833,46.998L191.667,49.812L192.5,49.812L193.333,52.064L194.167,50.938L195,48.687L195.833,46.998L196.667,47.561L197.5,49.25L198.333,51.501L199.167,53.189L200,52.064L200.833,53.189L201.667,54.315L202.5,53.752L203.333,54.878L204.167,58.255L205,58.818L205.833,59.944L206.667,60.507L207.5,59.944L208.333,57.129L209.167,55.441L210,54.315L210.833,51.501L211.667,50.375L212.5,49.812L213.333,48.124L214.167,47.561L215,47.561L215.833,47.561L216.667,47.561L217.5,48.124L218.333,50.375L219.167,53.189L220,52.627L220.833,55.441L221.667,56.567L222.5,56.004L223.333,56.004L224.167,57.692L225,56.567L225.833,55.441L226.667,58.255L227.5,55.441L228.333,56.004L229.167,54.878L230,56.004L230.833,54.315L231.667,52.627L232.5,50.938L233.333,49.25L234.167,48.687L235,48.687L235.833,48.687L236.667,52.064L237.5,51.501L238.333,50.938L239.167,53.752L240,53.189L240.833,53.752L241.667,54.878L242.5,56.004L243.333,56.567L244.167,58.255L245,58.818L245.833,59.944L246.667,61.632L247.5,63.321L248.333,64.447L249.167,64.447L250,62.195L250.833,61.069L251.667,59.381L252.5,57.129L253.333,56.567L254.167,57.692L255,58.255L255.833,58.255L256.667,60.507L257.5,59.944L258.333,60.507L259.167,63.321L260,63.884L260.833,61.632L261.667,63.884L262.5,62.195L263.333,61.069L264.167,59.381L265,60.507L265.833,60.507L266.667,60.507L267.5,61.069L268.333,61.632L269.167,58.255L270,57.129L270.833,54.315L271.667,57.129L272.5,56.567L273.333,54.315L274.167,50.938L275,50.938L275.833,52.627L276.667,52.064L277.5,52.627L278.333,52.627L279.167,54.315L280,54.878L280.833,54.315L281.667,51.501L282.5,52.627L283.333,51.501L284.167,54.878L285,53.752L285.833,54.315L286.667,55.441L287.5,55.441L288.333,51.501L289.167,50.375L290,49.812L290.833,49.812L291.667,51.501L292.5,48.687L293.333,46.998L294.167,45.872L295,45.872L295.833,45.872L296.667,46.998L297.5,49.812L298.333,52.064L299.167,52.064L300,54.315L300.833,51.501L301.667,50.938L302.5,49.25L303.333,49.812L304.167,50.375L305,48.687L305.833,45.31L306.667,44.747L307.5,43.621L308.333,44.184L309.167,43.621L310,39.118L310.833,41.37L311.667,39.681L312.5,40.807L313.333,41.37L314.167,40.807L315,43.058L315.833,45.872L316.667,43.058L317.5,40.244L318.333,40.244L319.167,39.118L320,38.555L320.833,37.992L321.667,37.992L322.5,39.118L323.333,39.681L324.167,39.681L325,38.555L325.833,39.118L326.667,43.058L327.5,42.495L328.333,40.807L329.167,43.058L330,44.747L330.833,43.621L331.667,44.184L332.5,43.058L333.333,39.681L334.167,35.741L335,39.681L335.833,39.118L336.667,41.932L337.5,41.932L338.333,41.932L339.167,44.184L340,45.872L340.833,46.435L341.667,48.687L342.5,48.124L343.333,47.561L344.167,48.687L345,49.25L345.833,48.124L346.667,44.747L347.5,41.932L348.333,41.37L349.167,36.867L350,35.178L350.833,36.867L351.667,39.681L352.5,39.118L353.333,41.37L354.167,41.932L355,43.621L355.833,43.058L356.667,45.872L357.5,45.31L358.333,44.184L359.167,43.058L360,39.118L360.833,35.741L361.667,35.178L362.5,36.867L363.333,36.304L364.167,33.49L365,34.053L365.833,34.053L366.667,31.801L367.5,35.178L368.333,37.43L369.167,35.741L370,33.49L370.833,33.49L371.667,35.178L372.5,35.741L373.333,34.053L374.167,34.615L375,34.615L375.833,34.615L376.667,37.992L377.5,37.992L378.333,39.681L379.167,36.867L380,36.867L380.833,38.555L381.667,40.244L382.5,39.681L383.333,40.807L384.167,42.495L385,43.058L385.833,42.495L386.667,43.621L387.5,41.932L388.333,39.118L389.167,38.555L390,38.555L390.833,37.992L391.667,37.992L392.5,35.741L393.333,36.867L394.167,39.118L395,38.555L395.833,39.118L396.667,39.118L397.5,37.992L398.333,37.43L399.167,35.741L400,35.178L400.833,35.741L401.667,34.053L402.5,33.49L403.333,32.364L404.167,32.364L405,31.801L405.833,28.987L406.667,26.735L407.5,28.987L408.333,27.298L409.167,25.61L410,23.358L410.833,20.544L411.667,20.544L412.5,19.981L413.333,19.418L414.167,19.981L415,19.418L415.833,18.856L416.667,22.233L417.5,23.921L418.333,21.67L419.167,21.107L420,24.484L420.833,21.107L421.667,21.67L422.5,24.484L423.333,23.358L424.167,20.544L425,18.856L425.833,17.73L426.667,19.418L427.5,17.73L428.333,18.293L429.167,21.107L430,23.921L430.833,22.795L431.667,21.67L432.5,21.107L433.333,21.67L434.167,19.981L435,21.67L435.833,22.795L436.667,21.107L437.5,19.418L438.333,21.107L439.167,19.418L440,22.233L440.833,25.047L441.667,22.233L442.5,22.233L443.333,24.484L444.167,24.484L445,24.484L445.833,24.484L446.667,23.358L447.5,24.484L448.333,26.735L449.167,26.735L450,25.61L450.833,24.484L451.667,23.358L452.5,26.173L453.333,27.298L454.167,22.795L455,22.795L455.833,25.047L456.667,27.298L457.5,29.55L458.333,31.801L459.167,32.364L460,35.741L460.833,34.615L461.667,36.304L462.5,37.43L463.333,34.615L464.167,34.053L465,36.867L465.833,37.43L466.667,37.43L467.5,38.555L468.333,38.555L469.167,38.555L470,39.681L470.833,40.807L471.667,43.058L472.5,45.872L473.333,45.31L474.167,44.184L475,39.681L475.833,41.37L476.667,41.37L477.5,36.867L478.333,36.867L479.167,34.053L480,35.178L480.833,35.741L481.667,36.867L482.5,36.304L483.333,39.118L484.167,40.244L485,40.807L485.833,40.807L486.667,41.37L487.5,40.807L488.333,44.747L489.167,46.998L490,46.435L490.833,44.747L491.667,43.621L492.5,41.932L493.333,43.621L494.167,39.681L495,41.37L495.833,39.118L496.667,35.741L497.5,36.867L498.333,35.178L499.167,35.178" stroke="#f16161" stroke-width="2"/></g></g><path class="foreground" aria-hidden="true" d="" display="none"/></g><g transform="translate(0,0)"><path class="background" aria-hidden="true" d="M0,0h500v150h-500Z"/><g><g class="mark-line role-mark layer_0_marks" role="graphics-object" aria-roledescription="line mark container"><path aria-label="Training episode: 0; Amount of reached targets: 0; brittle_star: 2" role="graphics-symbol" aria-roledescription="line mark" d="M0,150L0.833,150L1.667,150L2.5,150L3.333,150L4.167,150L5,150L5.833,150L6.667,150L7.5,150L8.333,150L9.167,150L10,150L10.833,150L11.667,150L12.5,150L13.333,150L14.167,150L15,150L15.833,150L16.667,150L17.5,150L18.333,150L19.167,150L20,150L20.833,150L21.667,150L22.5,150L23.333,150L24.167,150L25,150L25.833,150L26.667,150L27.5,150L28.333,150L29.167,150L30,150L30.833,150L31.667,150L32.5,150L33.333,150L34.167,150L35,150L35.833,150L36.667,150L37.5,150L38.333,150L39.167,150L40,150L40.833,150L41.667,150L42.5,150L43.333,150L44.167,150L45,150L45.833,150L46.667,150L47.5,150L48.333,150L49.167,150L50,150L50.833,150L51.667,150L52.5,150L53.333,150L54.167,150L55,150L55.833,150L56.667,150L57.5,150L58.333,150L59.167,150L60,150L60.833,150L61.667,150L62.5,150L63.333,150L64.167,150L65,150L65.833,150L66.667,150L67.5,150L68.333,150L69.167,150L70,150L70.833,150L71.667,150L72.5,150L73.333,150L74.167,150L75,150L75.833,150L76.667,150L77.5,150L78.333,150L79.167,150L80,150L80.833,150L81.667,150L82.5,150L83.333,150L84.167,150L85,150L85.833,150L86.667,150L87.5,150L88.333,150L89.167,150L90,150L90.833,150L91.667,150L92.5,149.437L93.333,148.874L94.167,148.874L95,148.874L95.833,148.874L96.667,148.874L97.5,148.311L98.333,148.311L99.167,147.749L100,147.749L100.833,147.186L101.667,146.623L102.5,146.623L103.333,145.497L104.167,144.934L105,144.371L105.833,142.12L106.667,140.994L107.5,140.432L108.333,138.743L109.167,137.617L110,136.492L110.833,135.366L111.667,134.803L112.5,133.114L113.333,131.426L114.167,131.426L115,129.737L115.833,128.049L116.667,126.36L117.5,124.672L118.333,122.983L119.167,121.295L120,119.606L120.833,117.917L121.667,113.977L122.5,110.6L123.333,108.912L124.167,107.223L125,105.535L125.833,104.409L126.667,102.72L127.5,101.595L128.333,99.906L129.167,98.218L130,95.403L130.833,93.152L131.667,90.901L132.5,88.649L133.333,88.649L134.167,88.086L135,88.086L135.833,86.961L136.667,84.709L137.5,85.272L138.333,84.146L139.167,84.709L140,83.583L140.833,83.583L141.667,82.458L142.5,82.458L143.333,81.895L144.167,81.332L145,81.332L145.833,81.332L146.667,80.769L147.5,80.206L148.333,79.644L149.167,77.955L150,77.392L150.833,76.829L151.667,75.704L152.5,73.452L153.333,72.326L154.167,70.638L155,70.638L155.833,73.452L156.667,74.578L157.5,74.015L158.333,71.764L159.167,70.638L160,68.386L160.833,67.824L161.667,65.572L162.5,63.884L163.333,62.195L164.167,58.818L165,58.818L165.833,58.255L166.667,58.255L167.5,57.692L168.333,54.315L169.167,53.189L170,52.064L170.833,50.375L171.667,47.561L172.5,48.687L173.333,45.31L174.167,45.872L175,43.058L175.833,41.932L176.667,40.807L177.5,39.681L178.333,38.555L179.167,35.741L180,32.364L180.833,31.238L181.667,30.675L182.5,27.298L183.333,27.298L184.167,26.173L185,26.735L185.833,26.173L186.667,26.735L187.5,25.047L188.333,26.735L189.167,26.173L190,26.173L190.833,26.735L191.667,25.61L192.5,26.173L193.333,26.735L194.167,27.861L195,27.861L195.833,29.55L196.667,28.987L197.5,28.424L198.333,31.238L199.167,32.927L200,35.178L200.833,36.304L201.667,37.43L202.5,40.807L203.333,39.681L204.167,39.681L205,42.495L205.833,44.747L206.667,42.495L207.5,41.37L208.333,40.807L209.167,44.184L210,44.184L210.833,45.31L211.667,45.31L212.5,45.872L213.333,45.872L214.167,46.435L215,45.31L215.833,44.184L216.667,45.31L217.5,46.435L218.333,47.561L219.167,47.561L220,50.375L220.833,49.25L221.667,50.375L222.5,48.124L223.333,48.124L224.167,45.31L225,43.621L225.833,44.184L226.667,44.747L227.5,44.747L228.333,44.747L229.167,44.184L230,45.31L230.833,45.872L231.667,47.561L232.5,48.687L233.333,45.31L234.167,44.747L235,40.807L235.833,38.555L236.667,36.867L237.5,38.555L238.333,39.118L239.167,36.867L240,35.741L240.833,35.741L241.667,37.992L242.5,39.681L243.333,37.43L244.167,36.867L245,36.867L245.833,36.304L246.667,34.615L247.5,35.741L248.333,34.615L249.167,36.867L250,37.992L250.833,37.43L251.667,36.304L252.5,36.304L253.333,32.927L254.167,30.113L255,33.49L255.833,35.178L256.667,36.304L257.5,35.178L258.333,37.43L259.167,36.867L260,37.43L260.833,36.304L261.667,35.741L262.5,36.304L263.333,34.615L264.167,32.364L265,33.49L265.833,33.49L266.667,32.927L267.5,34.615L268.333,34.053L269.167,34.615L270,36.304L270.833,35.178L271.667,36.304L272.5,35.741L273.333,35.178L274.167,34.053L275,36.304L275.833,35.741L276.667,35.178L277.5,36.304L278.333,37.992L279.167,39.118L280,40.807L280.833,37.992L281.667,36.867L282.5,39.118L283.333,38.555L284.167,37.43L285,36.867L285.833,37.992L286.667,36.304L287.5,36.867L288.333,37.43L289.167,35.741L290,34.615L290.833,34.053L291.667,34.615L292.5,34.053L293.333,36.304L294.167,35.178L295,36.304L295.833,36.304L296.667,34.615L297.5,36.304L298.333,35.741L299.167,32.927L300,33.49L300.833,32.364L301.667,28.424L302.5,25.047L303.333,27.861L304.167,26.735L305,28.424L305.833,26.735L306.667,27.861L307.5,28.987L308.333,28.424L309.167,26.735L310,28.424L310.833,25.61L311.667,24.484L312.5,22.795L313.333,18.856L314.167,16.604L315,21.67L315.833,20.544L316.667,20.544L317.5,17.73L318.333,18.293L319.167,19.418L320,18.856L320.833,18.293L321.667,19.418L322.5,19.981L323.333,16.604L324.167,14.353L325,14.353L325.833,12.664L326.667,12.101L327.5,10.413L328.333,9.85L329.167,7.598L330,8.161L330.833,7.036L331.667,7.036L332.5,6.473" stroke="#2D8CA8" stroke-width="2"/></g></g><path class="foreground" aria-hidden="true" d="" display="none"/></g></g><g class="mark-text role-mark layer_1_marks" role="graphics-object" aria-roledescription="text mark container"><text aria-label="step: 599; terminated_moving_avg: 4.9756097561; brittle_star: 1" role="graphics-symbol" aria-roledescription="text mark" text-anchor="middle" transform="translate(449.16666666666663,62.178236397748485)" font-family="RedHatDisplay" font-size="13px" fill="#f16161">Damage included (±8h)</text></g><g class="mark-text role-mark layer_2_marks" role="graphics-object" aria-roledescription="text mark container"><text aria-label="step: 399; terminated_moving_avg: 6.21951219512; brittle_star: 2" role="graphics-symbol" aria-roledescription="text mark" text-anchor="middle" transform="translate(343.5,-2.527204502814209)" font-family="RedHatDisplay" font-size="13px" fill="#2D8CA8">No damage included (±3h)</text></g><g class="mark-group role-title"><g transform="translate(250,-74.02720450281421)"><path class="background" aria-hidden="true" d="M0,0h0v0h0Z" pointer-events="none"/><g><g class="mark-text role-title-text" role="graphics-symbol" aria-roledescription="title" aria-label="Title text 'Achieving similar performance with damage robustness'" pointer-events="none"><text text-anchor="middle" transform="translate(0,14)" font-family="RedHatDisplay" font-size="18px" font-weight="normal" fill="#000" opacity="1">Achieving similar performance with damage robustness</text></g><g class="mark-text role-title-subtitle" role="graphics-symbol" aria-roledescription="subtitle" aria-label="Subtitle text 'requires more than twice as much time'" pointer-events="none"><text text-anchor="middle" transform="translate(0,35)" font-family="RedHatDisplay" font-size="18px" fill="#000" opacity="1">requires more than twice as much time</text></g></g><path class="foreground" aria-hidden="true" d="" pointer-events="none" display="none"/></g></g></g><path class="foreground" aria-hidden="true" d="" display="none"/></g></g></g></svg>