<svg version="1.1" viewBox="0.0 0.0 389.8241469816273 146.31496062992127" fill="none" stroke="none" stroke-linecap="square" stroke-miterlimit="10" xmlns:xlink="http://www.w3.org/1999/xlink" xmlns="http://www.w3.org/2000/svg"><clipPath id="p.0"><path d="m0 0l389.82416 0l0 146.31496l-389.82416 0l0 -146.31496z" clip-rule="nonzero"/></clipPath><g clip-path="url(#p.0)"><path fill="#000000" fill-opacity="0.0" d="m0 0l389.82416 0l0 146.31496l-389.82416 0z" fill-rule="evenodd"/><path fill="#ffffff" d="m10.912073 17.283464l368.0 0l0 111.74803l-368.0 0z" fill-rule="evenodd"/><path stroke="#000000" stroke-width="0.3989501312335958" stroke-linejoin="round" stroke-linecap="butt" d="m10.912073 17.283464l368.0 0l0 111.74803l-368.0 0z" fill-rule="evenodd"/><path fill="#2d8ca8" fill-opacity="0.4227" d="m120.98075 34.927197l65.5118 0l0 29.039368l-65.5118 0z" fill-rule="evenodd"/><path stroke="#000000" stroke-width="0.3989501312335958" stroke-linejoin="round" stroke-linecap="butt" d="m120.98075 34.927197l65.5118 0l0 29.039368l-65.5118 0z" fill-rule="evenodd"/><path fill="#000000" d="m140.72896 45.679302q0 -1.0625 0.59375 -1.578125q0.5 -0.4375 1.21875 -0.4375q0.796875 0 1.296875 0.53125q0.515625 0.515625 0.515625 1.4375q0 0.75 -0.234375 1.171875q-0.21875 0.421875 -0.65625 0.671875q-0.421875 0.234375 -0.921875 0.234375q-0.8125 0 -1.3125 -0.515625q-0.5 -0.53125 -0.5 -1.515625zm0.671875 0q0 0.75 0.3125 1.125q0.328125 0.359375 0.828125 0.359375q0.484375 0 0.796875 -0.359375q0.328125 -0.375 0.328125 -1.140625q0 -0.71875 -0.328125 -1.078125q-0.3125 -0.375 -0.796875 -0.375q-0.5 0 -0.828125 0.375q-0.3125 0.359375 -0.3125 1.09375zm4.3169556 1.9375l-0.609375 0l0 -5.328125l0.65625 0l0 1.890625q0.421875 -0.515625 1.0625 -0.515625q0.359375 0 0.671875 0.140625q0.3125 0.140625 0.515625 0.40625q0.21875 0.265625 0.328125 0.640625q0.125 0.359375 0.125 0.78125q0 0.984375 -0.5 1.53125q-0.484375 0.546875 -1.171875 0.546875q-0.6875 0 -1.078125 -0.578125l0 0.484375zm0 -1.96875q0 0.703125 0.1875 1.015625q0.3125 0.5 0.828125 0.5q0.4375 0 0.75 -0.375q0.3125 -0.375 0.3125 -1.109375q0 -0.75 -0.3125 -1.109375q-0.296875 -0.359375 -0.71875 -0.359375q-0.421875 0 -0.734375 0.375q-0.3125 0.359375 -0.3125 1.0625zm3.2857056 0.8125l0.640625 -0.09375q0.0625 0.390625 0.3125 0.59375q0.25 0.203125 0.6875 0.203125q0.453125 0 0.671875 -0.171875q0.21875 -0.1875 0.21875 -0.4375q0 -0.21875 -0.1875 -0.359375q-0.140625 -0.078125 -0.671875 -0.21875q-0.71875 -0.171875 -1.0 -0.296875q-0.28125 -0.140625 -0.421875 -0.375q-0.140625 -0.25 -0.140625 -0.53125q0 -0.25 0.109375 -0.46875q0.125 -0.21875 0.328125 -0.375q0.15625 -0.109375 0.40625 -0.1875q0.265625 -0.078125 0.578125 -0.078125q0.453125 0 0.796875 0.140625q0.34375 0.125 0.5 0.34375q0.171875 0.21875 0.234375 0.59375l-0.640625 0.09375q-0.046875 -0.296875 -0.265625 -0.453125q-0.203125 -0.171875 -0.578125 -0.171875q-0.453125 0 -0.65625 0.15625q-0.1875 0.140625 -0.1875 0.328125q0 0.140625 0.078125 0.234375q0.078125 0.109375 0.25 0.171875q0.109375 0.046875 0.578125 0.171875q0.703125 0.1875 0.96875 0.3125q0.28125 0.109375 0.4375 0.34375q0.15625 0.21875 0.15625 0.546875q0 0.328125 -0.1875 0.625q-0.1875 0.28125 -0.546875 0.453125q-0.359375 0.15625 -0.828125 0.15625q-0.75 0 -1.140625 -0.3125q-0.390625 -0.3125 -0.5 -0.9375zm6.6328125 -0.09375l0.671875 0.09375q-0.15625 0.59375 -0.59375 0.921875q-0.4375 0.328125 -1.109375 0.328125q-0.84375 0 -1.34375 -0.515625q-0.5 -0.53125 -0.5 -1.484375q0 -0.96875 0.5 -1.5q0.515625 -0.546875 1.3125 -0.546875q0.78125 0 1.265625 0.53125q0.484375 0.53125 0.484375 1.484375q0 0.0625 0 0.171875l-2.875 0q0.03125 0.640625 0.359375 0.984375q0.328125 0.328125 0.8125 0.328125q0.359375 0 0.609375 -0.1875q0.25 -0.1875 0.40625 -0.609375zm-2.15625 -1.046875l2.15625 0q-0.046875 -0.5 -0.25 -0.734375q-0.3125 -0.375 -0.8125 -0.375q-0.4375 0 -0.75 0.296875q-0.3125 0.296875 -0.34375 0.8125zm3.6450806 2.296875l0 -3.859375l0.59375 0l0 0.578125q0.21875 -0.40625 0.40625 -0.53125q0.203125 -0.140625 0.421875 -0.140625q0.328125 0 0.671875 0.21875l-0.21875 0.59375q-0.234375 -0.140625 -0.484375 -0.140625q-0.21875 0 -0.390625 0.140625q-0.15625 0.125 -0.234375 0.359375q-0.109375 0.34375 -0.109375 0.765625l0 2.015625l-0.65625 0zm3.5600739 0l-1.46875 -3.859375l0.6875 0l0.828125 2.3125q0.140625 0.375 0.25 0.78125q0.09375 -0.3125 0.25 -0.734375l0.859375 -2.359375l0.671875 0l-1.46875 3.859375l-0.609375 0zm5.3046875 -1.25l0.671875 0.09375q-0.15625 0.59375 -0.59375 0.921875q-0.4375 0.328125 -1.109375 0.328125q-0.84375 0 -1.34375 -0.515625q-0.5 -0.53125 -0.5 -1.484375q0 -0.96875 0.5 -1.5q0.515625 -0.546875 1.3125 -0.546875q0.78125 0 1.265625 0.53125q0.484375 0.53125 0.484375 1.484375q0 0.0625 0 0.171875l-2.875 0q0.03125 0.640625 0.359375 0.984375q0.328125 0.328125 0.8125 0.328125q0.359375 0 0.609375 -0.1875q0.25 -0.1875 0.40625 -0.609375zm-2.15625 -1.046875l2.15625 0q-0.046875 -0.5 -0.25 -0.734375q-0.3125 -0.375 -0.8125 -0.375q-0.4375 0 -0.75 0.296875q-0.3125 0.296875 -0.34375 0.8125z" fill-rule="nonzero"/><path fill="#000000" d="m136.37024 55.366802l0.671875 0.09375q-0.15625 0.59375 -0.59375 0.921875q-0.4375 0.328125 -1.109375 0.328125q-0.84375 0 -1.34375 -0.515625q-0.5 -0.53125 -0.5 -1.484375q0 -0.96875 0.5 -1.5q0.515625 -0.546875 1.3125 -0.546875q0.78125 0 1.265625 0.53125q0.484375 0.53125 0.484375 1.484375q0 0.0625 0 0.171875l-2.875 0q0.03125 0.640625 0.359375 0.984375q0.328125 0.328125 0.8125 0.328125q0.359375 0 0.609375 -0.1875q0.25 -0.1875 0.40625 -0.609375zm-2.15625 -1.046875l2.15625 0q-0.046875 -0.5 -0.25 -0.734375q-0.3125 -0.375 -0.8125 -0.375q-0.4375 0 -0.75 0.296875q-0.3125 0.296875 -0.34375 0.8125zm3.6450806 2.296875l0 -3.859375l0.59375 0l0 0.546875q0.421875 -0.640625 1.234375 -0.640625q0.34375 0 0.640625 0.125q0.296875 0.125 0.4375 0.328125q0.140625 0.203125 0.203125 0.484375q0.03125 0.1875 0.03125 0.640625l0 2.375l-0.640625 0l0 -2.34375q0 -0.40625 -0.078125 -0.59375q-0.078125 -0.203125 -0.28125 -0.328125q-0.1875 -0.125 -0.453125 -0.125q-0.421875 0 -0.734375 0.265625q-0.296875 0.265625 -0.296875 1.015625l0 2.109375l-0.65625 0zm5.2232056 0l-1.46875 -3.859375l0.6875 0l0.828125 2.3125q0.140625 0.375 0.25 0.78125q0.09375 -0.3125 0.25 -0.734375l0.859375 -2.359375l0.671875 0l-1.46875 3.859375l-0.609375 0zm2.6640625 -4.578125l0 -0.75l0.65625 0l0 0.75l-0.65625 0zm0 4.578125l0 -3.859375l0.65625 0l0 3.859375l-0.65625 0zm1.6402283 0l0 -3.859375l0.59375 0l0 0.578125q0.21875 -0.40625 0.40625 -0.53125q0.203125 -0.140625 0.421875 -0.140625q0.328125 0 0.671875 0.21875l-0.21875 0.59375q-0.234375 -0.140625 -0.484375 -0.140625q-0.21875 0 -0.390625 0.140625q-0.15625 0.125 -0.234375 0.359375q-0.109375 0.34375 -0.109375 0.765625l0 2.015625l-0.65625 0zm2.2475739 -1.9375q0 -1.0625 0.59375 -1.578125q0.5 -0.4375 1.21875 -0.4375q0.796875 0 1.296875 0.53125q0.515625 0.515625 0.515625 1.4375q0 0.75 -0.234375 1.171875q-0.21875 0.421875 -0.65625 0.671875q-0.421875 0.234375 -0.921875 0.234375q-0.8125 0 -1.3125 -0.515625q-0.5 -0.53125 -0.5 -1.515625zm0.671875 0q0 0.75 0.3125 1.125q0.328125 0.359375 0.828125 0.359375q0.484375 0 0.796875 -0.359375q0.328125 -0.375 0.328125 -1.140625q0 -0.71875 -0.328125 -1.078125q-0.3125 -0.375 -0.796875 -0.375q-0.5 0 -0.828125 0.375q-0.3125 0.359375 -0.3125 1.09375zm3.7075806 1.9375l0 -3.859375l0.59375 0l0 0.546875q0.421875 -0.640625 1.234375 -0.640625q0.34375 0 0.640625 0.125q0.296875 0.125 0.4375 0.328125q0.140625 0.203125 0.203125 0.484375q0.03125 0.1875 0.03125 0.640625l0 2.375l-0.640625 0l0 -2.34375q0 -0.40625 -0.078125 -0.59375q-0.078125 -0.203125 -0.28125 -0.328125q-0.1875 -0.125 -0.453125 -0.125q-0.421875 0 -0.734375 0.265625q-0.296875 0.265625 -0.296875 1.015625l0 2.109375l-0.65625 0zm4.1450806 0l0 -3.859375l0.59375 0l0 0.53125q0.1875 -0.28125 0.484375 -0.453125q0.296875 -0.171875 0.6875 -0.171875q0.421875 0 0.703125 0.1875q0.28125 0.171875 0.390625 0.484375q0.453125 -0.671875 1.1875 -0.671875q0.578125 0 0.890625 0.328125q0.3125 0.3125 0.3125 0.96875l0 2.65625l-0.65625 0l0 -2.4375q0 -0.390625 -0.0625 -0.5625q-0.0625 -0.171875 -0.234375 -0.28125q-0.171875 -0.109375 -0.390625 -0.109375q-0.40625 0 -0.6875 0.28125q-0.265625 0.265625 -0.265625 0.859375l0 2.25l-0.65625 0l0 -2.515625q0 -0.4375 -0.15625 -0.65625q-0.15625 -0.21875 -0.515625 -0.21875q-0.28125 0 -0.515625 0.15625q-0.234375 0.140625 -0.34375 0.421875q-0.109375 0.28125 -0.109375 0.8125l0 2.0l-0.65625 0zm8.864761 -1.25l0.671875 0.09375q-0.15625 0.59375 -0.59375 0.921875q-0.4375 0.328125 -1.109375 0.328125q-0.84375 0 -1.34375 -0.515625q-0.5 -0.53125 -0.5 -1.484375q0 -0.96875 0.5 -1.5q0.515625 -0.546875 1.3125 -0.546875q0.78125 0 1.265625 0.53125q0.484375 0.53125 0.484375 1.484375q0 0.0625 0 0.171875l-2.875 0q0.03125 0.640625 0.359375 0.984375q0.328125 0.328125 0.8125 0.328125q0.359375 0 0.609375 -0.1875q0.25 -0.1875 0.40625 -0.609375zm-2.15625 -1.046875l2.15625 0q-0.046875 -0.5 -0.25 -0.734375q-0.3125 -0.375 -0.8125 -0.375q-0.4375 0 -0.75 0.296875q-0.3125 0.296875 -0.34375 0.8125zm3.6450806 2.296875l0 -3.859375l0.59375 0l0 0.546875q0.421875 -0.640625 1.234375 -0.640625q0.34375 0 0.640625 0.125q0.296875 0.125 0.4375 0.328125q0.140625 0.203125 0.203125 0.484375q0.03125 0.1875 0.03125 0.640625l0 2.375l-0.640625 0l0 -2.34375q0 -0.40625 -0.078125 -0.59375q-0.078125 -0.203125 -0.28125 -0.328125q-0.1875 -0.125 -0.453125 -0.125q-0.421875 0 -0.734375 0.265625q-0.296875 0.265625 -0.296875 1.015625l0 2.109375l-0.65625 0zm5.5825806 -0.578125l0.09375 0.578125q-0.28125 0.046875 -0.5 0.046875q-0.34375 0 -0.546875 -0.109375q-0.203125 -0.109375 -0.28125 -0.296875q-0.078125 -0.1875 -0.078125 -0.765625l0 -2.234375l-0.484375 0l0 -0.5l0.484375 0l0 -0.96875l0.65625 -0.390625l0 1.359375l0.65625 0l0 0.5l-0.65625 0l0 2.265625q0 0.28125 0.03125 0.359375q0.03125 0.078125 0.109375 0.125q0.078125 0.046875 0.234375 0.046875q0.109375 0 0.28125 -0.015625z" fill-rule="nonzero"/><path fill="#2d8ca8" fill-opacity="0.4227" d="m203.32538 34.939796l65.51181 0l0 29.039371l-65.51181 0z" fill-rule="evenodd"/><path stroke="#000000" stroke-width="0.3989501312335958" stroke-linejoin="round" stroke-linecap="butt" d="m203.32538 34.939796l65.51181 0l0 29.039371l-65.51181 0z" fill-rule="evenodd"/><path fill="#000000" d="m217.0958 53.613777l0 -5.34375l0.609375 0l0 0.5q0.203125 -0.296875 0.46875 -0.4375q0.265625 -0.15625 0.640625 -0.15625q0.5 0 0.875 0.265625q0.375 0.25 0.5625 0.71875q0.203125 0.453125 0.203125 1.0q0 0.59375 -0.21875 1.078125q-0.203125 0.46875 -0.609375 0.734375q-0.40625 0.25 -0.859375 0.25q-0.328125 0 -0.59375 -0.140625q-0.25 -0.140625 -0.421875 -0.359375l0 1.890625l-0.65625 0zm0.59375 -3.390625q0 0.734375 0.296875 1.09375q0.3125 0.359375 0.75 0.359375q0.4375 0 0.734375 -0.359375q0.3125 -0.375 0.3125 -1.15625q0 -0.734375 -0.3125 -1.09375q-0.296875 -0.375 -0.71875 -0.375q-0.40625 0 -0.734375 0.390625q-0.328125 0.390625 -0.328125 1.140625zm3.5669556 -2.671875l0 -0.75l0.65625 0l0 0.75l-0.65625 0zm0 4.578125l0 -3.859375l0.65625 0l0 3.859375l-0.65625 0zm4.1714783 -1.421875l0.640625 0.09375q-0.109375 0.65625 -0.546875 1.046875q-0.421875 0.375 -1.0625 0.375q-0.796875 0 -1.28125 -0.515625q-0.46875 -0.53125 -0.46875 -1.5q0 -0.625 0.203125 -1.09375q0.203125 -0.46875 0.625 -0.703125q0.421875 -0.234375 0.921875 -0.234375q0.640625 0 1.03125 0.328125q0.40625 0.3125 0.515625 0.890625l-0.640625 0.109375q-0.078125 -0.390625 -0.3125 -0.578125q-0.234375 -0.203125 -0.5625 -0.203125q-0.5 0 -0.8125 0.359375q-0.296875 0.34375 -0.296875 1.109375q0 0.78125 0.296875 1.140625q0.296875 0.34375 0.78125 0.34375q0.375 0 0.625 -0.234375q0.265625 -0.234375 0.34375 -0.734375zm1.2109375 1.421875l0 -5.328125l0.65625 0l0 3.03125l1.546875 -1.5625l0.84375 0l-1.46875 1.421875l1.625 2.4375l-0.8125 0l-1.28125 -1.96875l-0.453125 0.4375l0 1.53125l-0.65625 0zm8.312912 -0.484375q-0.359375 0.3125 -0.703125 0.453125q-0.34375 0.125 -0.71875 0.125q-0.640625 0 -0.984375 -0.3125q-0.34375 -0.3125 -0.34375 -0.796875q0 -0.28125 0.125 -0.515625q0.140625 -0.234375 0.34375 -0.375q0.21875 -0.15625 0.46875 -0.21875q0.203125 -0.0625 0.59375 -0.109375q0.78125 -0.09375 1.15625 -0.21875q0.015625 -0.140625 0.015625 -0.171875q0 -0.40625 -0.1875 -0.5625q-0.25 -0.21875 -0.75 -0.21875q-0.46875 0 -0.6875 0.15625q-0.21875 0.15625 -0.328125 0.578125l-0.640625 -0.09375q0.09375 -0.40625 0.296875 -0.65625q0.203125 -0.25 0.578125 -0.390625q0.375 -0.140625 0.875 -0.140625q0.5 0 0.796875 0.125q0.3125 0.109375 0.453125 0.296875q0.15625 0.171875 0.21875 0.4375q0.03125 0.171875 0.03125 0.59375l0 0.875q0 0.921875 0.03125 1.171875q0.046875 0.234375 0.171875 0.453125l-0.6875 0q-0.09375 -0.203125 -0.125 -0.484375zm-0.0625 -1.453125q-0.34375 0.140625 -1.0625 0.25q-0.40625 0.046875 -0.578125 0.125q-0.15625 0.078125 -0.25 0.21875q-0.09375 0.140625 -0.09375 0.3125q0 0.25 0.1875 0.4375q0.203125 0.171875 0.59375 0.171875q0.375 0 0.671875 -0.15625q0.296875 -0.171875 0.4375 -0.46875q0.09375 -0.21875 0.09375 -0.65625l0 -0.234375zm4.2075806 0.515625l0.640625 0.09375q-0.109375 0.65625 -0.546875 1.046875q-0.421875 0.375 -1.0625 0.375q-0.796875 0 -1.28125 -0.515625q-0.46875 -0.53125 -0.46875 -1.5q0 -0.625 0.203125 -1.09375q0.203125 -0.46875 0.625 -0.703125q0.421875 -0.234375 0.921875 -0.234375q0.640625 0 1.03125 0.328125q0.40625 0.3125 0.515625 0.890625l-0.640625 0.109375q-0.078125 -0.390625 -0.3125 -0.578125q-0.234375 -0.203125 -0.5625 -0.203125q-0.5 0 -0.8125 0.359375q-0.296875 0.34375 -0.296875 1.109375q0 0.78125 0.296875 1.140625q0.296875 0.34375 0.78125 0.34375q0.375 0 0.625 -0.234375q0.265625 -0.234375 0.34375 -0.734375zm2.6328125 0.84375l0.09375 0.578125q-0.28125 0.046875 -0.5 0.046875q-0.34375 0 -0.546875 -0.109375q-0.203125 -0.109375 -0.28125 -0.296875q-0.078125 -0.1875 -0.078125 -0.765625l0 -2.234375l-0.484375 0l0 -0.5l0.484375 0l0 -0.96875l0.65625 -0.390625l0 1.359375l0.65625 0l0 0.5l-0.65625 0l0 2.265625q0 0.28125 0.03125 0.359375q0.03125 0.078125 0.109375 0.125q0.078125 0.046875 0.234375 0.046875q0.109375 0 0.28125 -0.015625zm0.6488495 -4.0l0 -0.75l0.65625 0l0 0.75l-0.65625 0zm0 4.578125l0 -3.859375l0.65625 0l0 3.859375l-0.65625 0zm1.4058533 -1.9375q0 -1.0625 0.59375 -1.578125q0.5 -0.4375 1.21875 -0.4375q0.796875 0 1.296875 0.53125q0.515625 0.515625 0.515625 1.4375q0 0.75 -0.234375 1.171875q-0.21875 0.421875 -0.65625 0.671875q-0.421875 0.234375 -0.921875 0.234375q-0.8125 0 -1.3125 -0.515625q-0.5 -0.53125 -0.5 -1.515625zm0.671875 0q0 0.75 0.3125 1.125q0.328125 0.359375 0.828125 0.359375q0.484375 0 0.796875 -0.359375q0.328125 -0.375 0.328125 -1.140625q0 -0.71875 -0.328125 -1.078125q-0.3125 -0.375 -0.796875 -0.375q-0.5 0 -0.828125 0.375q-0.3125 0.359375 -0.3125 1.09375zm3.7075806 1.9375l0 -3.859375l0.59375 0l0 0.546875q0.421875 -0.640625 1.234375 -0.640625q0.34375 0 0.640625 0.125q0.296875 0.125 0.4375 0.328125q0.140625 0.203125 0.203125 0.484375q0.03125 0.1875 0.03125 0.640625l0 2.375l-0.640625 0l0 -2.34375q0 -0.40625 -0.078125 -0.59375q-0.078125 -0.203125 -0.28125 -0.328125q-0.1875 -0.125 -0.453125 -0.125q-0.421875 0 -0.734375 0.265625q-0.296875 0.265625 -0.296875 1.015625l0 2.109375l-0.65625 0zm3.8950806 -1.15625l0.640625 -0.09375q0.0625 0.390625 0.3125 0.59375q0.25 0.203125 0.6875 0.203125q0.453125 0 0.671875 -0.171875q0.21875 -0.1875 0.21875 -0.4375q0 -0.21875 -0.1875 -0.359375q-0.140625 -0.078125 -0.671875 -0.21875q-0.71875 -0.171875 -1.0 -0.296875q-0.28125 -0.140625 -0.421875 -0.375q-0.140625 -0.25 -0.140625 -0.53125q0 -0.25 0.109375 -0.46875q0.125 -0.21875 0.328125 -0.375q0.15625 -0.109375 0.40625 -0.1875q0.265625 -0.078125 0.578125 -0.078125q0.453125 0 0.796875 0.140625q0.34375 0.125 0.5 0.34375q0.171875 0.21875 0.234375 0.59375l-0.640625 0.09375q-0.046875 -0.296875 -0.265625 -0.453125q-0.203125 -0.171875 -0.578125 -0.171875q-0.453125 0 -0.65625 0.15625q-0.1875 0.140625 -0.1875 0.328125q0 0.140625 0.078125 0.234375q0.078125 0.109375 0.25 0.171875q0.109375 0.046875 0.578125 0.171875q0.703125 0.1875 0.96875 0.3125q0.28125 0.109375 0.4375 0.34375q0.15625 0.21875 0.15625 0.546875q0 0.328125 -0.1875 0.625q-0.1875 0.28125 -0.546875 0.453125q-0.359375 0.15625 -0.828125 0.15625q-0.75 0 -1.140625 -0.3125q-0.390625 -0.3125 -0.5 -0.9375z" fill-rule="nonzero"/><path fill="#2d8ca8" fill-opacity="0.4227" d="m285.67 34.927197l65.51181 0l0 29.039368l-65.51181 0z" fill-rule="evenodd"/><path stroke="#000000" stroke-width="0.3989501312335958" stroke-linejoin="round" stroke-linecap="butt" d="m285.67 34.927197l65.51181 0l0 29.039368l-65.51181 0z" fill-rule="evenodd"/><path fill="#000000" d="m298.5613 52.116802l0 -3.359375l-0.578125 0l0 -0.5l0.578125 0l0 -0.421875q0 -0.390625 0.078125 -0.578125q0.09375 -0.25 0.328125 -0.40625q0.234375 -0.15625 0.671875 -0.15625q0.28125 0 0.609375 0.0625l-0.09375 0.5625q-0.203125 -0.03125 -0.390625 -0.03125q-0.296875 0 -0.421875 0.125q-0.125 0.125 -0.125 0.484375l0 0.359375l0.75 0l0 0.5l-0.75 0l0 3.359375l-0.65625 0zm4.570709 -1.25l0.671875 0.09375q-0.15625 0.59375 -0.59375 0.921875q-0.4375 0.328125 -1.109375 0.328125q-0.84375 0 -1.34375 -0.515625q-0.5 -0.53125 -0.5 -1.484375q0 -0.96875 0.5 -1.5q0.515625 -0.546875 1.3125 -0.546875q0.78125 0 1.265625 0.53125q0.484375 0.53125 0.484375 1.484375q0 0.0625 0 0.171875l-2.875 0q0.03125 0.640625 0.359375 0.984375q0.328125 0.328125 0.8125 0.328125q0.359375 0 0.609375 -0.1875q0.25 -0.1875 0.40625 -0.609375zm-2.15625 -1.046875l2.15625 0q-0.046875 -0.5 -0.25 -0.734375q-0.3125 -0.375 -0.8125 -0.375q-0.4375 0 -0.75 0.296875q-0.3125 0.296875 -0.34375 0.8125zm5.0825806 1.71875l0.09375 0.578125q-0.28125 0.046875 -0.5 0.046875q-0.34375 0 -0.546875 -0.109375q-0.203125 -0.109375 -0.28125 -0.296875q-0.078125 -0.1875 -0.078125 -0.765625l0 -2.234375l-0.484375 0l0 -0.5l0.484375 0l0 -0.96875l0.65625 -0.390625l0 1.359375l0.65625 0l0 0.5l-0.65625 0l0 2.265625q0 0.28125 0.03125 0.359375q0.03125 0.078125 0.109375 0.125q0.078125 0.046875 0.234375 0.046875q0.109375 0 0.28125 -0.015625zm3.1644897 -0.84375l0.640625 0.09375q-0.109375 0.65625 -0.546875 1.046875q-0.421875 0.375 -1.0625 0.375q-0.796875 0 -1.28125 -0.515625q-0.46875 -0.53125 -0.46875 -1.5q0 -0.625 0.203125 -1.09375q0.203125 -0.46875 0.625 -0.703125q0.421875 -0.234375 0.921875 -0.234375q0.640625 0 1.03125 0.328125q0.40625 0.3125 0.515625 0.890625l-0.640625 0.109375q-0.078125 -0.390625 -0.3125 -0.578125q-0.234375 -0.203125 -0.5625 -0.203125q-0.5 0 -0.8125 0.359375q-0.296875 0.34375 -0.296875 1.109375q0 0.78125 0.296875 1.140625q0.296875 0.34375 0.78125 0.34375q0.375 0 0.625 -0.234375q0.265625 -0.234375 0.34375 -0.734375zm1.1953125 1.421875l0 -5.328125l0.65625 0l0 1.90625q0.46875 -0.53125 1.15625 -0.53125q0.4375 0 0.75 0.171875q0.3125 0.171875 0.453125 0.46875q0.140625 0.296875 0.140625 0.859375l0 2.453125l-0.65625 0l0 -2.453125q0 -0.484375 -0.21875 -0.703125q-0.203125 -0.234375 -0.59375 -0.234375q-0.296875 0 -0.5625 0.15625q-0.25 0.140625 -0.359375 0.40625q-0.109375 0.265625 -0.109375 0.71875l0 2.109375l-0.65625 0zm6.21579 0l0 -3.859375l0.59375 0l0 0.578125q0.21875 -0.40625 0.40625 -0.53125q0.203125 -0.140625 0.421875 -0.140625q0.328125 0 0.671875 0.21875l-0.21875 0.59375q-0.234375 -0.140625 -0.484375 -0.140625q-0.21875 0 -0.390625 0.140625q-0.15625 0.125 -0.234375 0.359375q-0.109375 0.34375 -0.109375 0.765625l0 2.015625l-0.65625 0zm5.138214 -1.25l0.671875 0.09375q-0.15625 0.59375 -0.59375 0.921875q-0.4375 0.328125 -1.109375 0.328125q-0.84375 0 -1.34375 -0.515625q-0.5 -0.53125 -0.5 -1.484375q0 -0.96875 0.5 -1.5q0.515625 -0.546875 1.3125 -0.546875q0.78125 0 1.265625 0.53125q0.484375 0.53125 0.484375 1.484375q0 0.0625 0 0.171875l-2.875 0q0.03125 0.640625 0.359375 0.984375q0.328125 0.328125 0.8125 0.328125q0.359375 0 0.609375 -0.1875q0.25 -0.1875 0.40625 -0.609375zm-2.15625 -1.046875l2.15625 0q-0.046875 -0.5 -0.25 -0.734375q-0.3125 -0.375 -0.8125 -0.375q-0.4375 0 -0.75 0.296875q-0.3125 0.296875 -0.34375 0.8125zm4.3638306 2.296875l-1.1875 -3.859375l0.6875 0l0.609375 2.21875l0.234375 0.84375q0.015625 -0.0625 0.203125 -0.796875l0.609375 -2.265625l0.671875 0l0.578125 2.234375l0.1875 0.734375l0.234375 -0.734375l0.65625 -2.234375l0.640625 0l-1.21875 3.859375l-0.671875 0l-0.609375 -2.3125l-0.15625 -0.65625l-0.78125 2.96875l-0.6875 0zm7.194916 -0.484375q-0.359375 0.3125 -0.703125 0.453125q-0.34375 0.125 -0.71875 0.125q-0.640625 0 -0.984375 -0.3125q-0.34375 -0.3125 -0.34375 -0.796875q0 -0.28125 0.125 -0.515625q0.140625 -0.234375 0.34375 -0.375q0.21875 -0.15625 0.46875 -0.21875q0.203125 -0.0625 0.59375 -0.109375q0.78125 -0.09375 1.15625 -0.21875q0.015625 -0.140625 0.015625 -0.171875q0 -0.40625 -0.1875 -0.5625q-0.25 -0.21875 -0.75 -0.21875q-0.46875 0 -0.6875 0.15625q-0.21875 0.15625 -0.328125 0.578125l-0.640625 -0.09375q0.09375 -0.40625 0.296875 -0.65625q0.203125 -0.25 0.578125 -0.390625q0.375 -0.140625 0.875 -0.140625q0.5 0 0.796875 0.125q0.3125 0.109375 0.453125 0.296875q0.15625 0.171875 0.21875 0.4375q0.03125 0.171875 0.03125 0.59375l0 0.875q0 0.921875 0.03125 1.171875q0.046875 0.234375 0.171875 0.453125l-0.6875 0q-0.09375 -0.203125 -0.125 -0.484375zm-0.0625 -1.453125q-0.34375 0.140625 -1.0625 0.25q-0.40625 0.046875 -0.578125 0.125q-0.15625 0.078125 -0.25 0.21875q-0.09375 0.140625 -0.09375 0.3125q0 0.25 0.1875 0.4375q0.203125 0.171875 0.59375 0.171875q0.375 0 0.671875 -0.15625q0.296875 -0.171875 0.4375 -0.46875q0.09375 -0.21875 0.09375 -0.65625l0 -0.234375zm1.6763306 1.9375l0 -3.859375l0.59375 0l0 0.578125q0.21875 -0.40625 0.40625 -0.53125q0.203125 -0.140625 0.421875 -0.140625q0.328125 0 0.671875 0.21875l-0.21875 0.59375q-0.234375 -0.140625 -0.484375 -0.140625q-0.21875 0 -0.390625 0.140625q-0.15625 0.125 -0.234375 0.359375q-0.109375 0.34375 -0.109375 0.765625l0 2.015625l-0.65625 0zm4.9975586 0l0 -0.484375q-0.375 0.578125 -1.078125 0.578125q-0.46875 0 -0.859375 -0.25q-0.375 -0.265625 -0.59375 -0.71875q-0.21875 -0.453125 -0.21875 -1.046875q0 -0.578125 0.1875 -1.046875q0.203125 -0.484375 0.578125 -0.734375q0.390625 -0.25 0.875 -0.25q0.34375 0 0.609375 0.15625q0.28125 0.140625 0.453125 0.375l0 -1.90625l0.65625 0l0 5.328125l-0.609375 0zm-2.078125 -1.921875q0 0.734375 0.3125 1.109375q0.3125 0.359375 0.75 0.359375q0.421875 0 0.71875 -0.34375q0.3125 -0.359375 0.3125 -1.078125q0 -0.796875 -0.3125 -1.15625q-0.3125 -0.375 -0.75 -0.375q-0.4375 0 -0.734375 0.359375q-0.296875 0.34375 -0.296875 1.125z" fill-rule="nonzero"/><path fill="#000000" fill-opacity="0.0" d="m186.49255 49.44688l16.818909 0" fill-rule="evenodd"/><path stroke="#000000" stroke-width="0.3989501312335958" stroke-linejoin="round" stroke-linecap="butt" d="m186.49255 49.44688l14.425201 0" fill-rule="evenodd"/><path fill="#000000" stroke="#000000" stroke-width="0.3989501312335958" stroke-linecap="butt" d="m200.91776 50.10584l1.8104706 -0.65895844l-1.8104706 -0.65895844z" fill-rule="evenodd"/><path fill="#000000" fill-opacity="0.0" d="m268.8372 49.45948l16.818878 0" fill-rule="evenodd"/><path stroke="#000000" stroke-width="0.3989501312335958" stroke-linejoin="round" stroke-linecap="butt" d="m268.8372 49.45948l14.425201 0" fill-rule="evenodd"/><path fill="#000000" stroke="#000000" stroke-width="0.3989501312335958" stroke-linecap="butt" d="m283.2624 50.11844l1.8104553 -0.65895844l-1.8104553 -0.65895844z" fill-rule="evenodd"/><path fill="#2d8ca8" fill-opacity="0.4227" d="m38.636124 34.927197l65.51181 0l0 29.039368l-65.51181 0z" fill-rule="evenodd"/><path stroke="#000000" stroke-width="0.3989501312335958" stroke-linejoin="round" stroke-linecap="butt" d="m38.636124 34.927197l65.51181 0l0 29.039368l-65.51181 0z" fill-rule="evenodd"/><path fill="#000000" d="m58.63613 47.538677l0 -0.75l0.65625 0l0 0.75l-0.65625 0zm0 4.578125l0 -3.859375l0.65625 0l0 3.859375l-0.65625 0zm1.6402283 0l0 -3.859375l0.59375 0l0 0.546875q0.421875 -0.640625 1.234375 -0.640625q0.34375 0 0.640625 0.125q0.296875 0.125 0.4375 0.328125q0.140625 0.203125 0.203125 0.484375q0.03125 0.1875 0.03125 0.640625l0 2.375l-0.640625 0l0 -2.34375q0 -0.40625 -0.078125 -0.59375q-0.078125 -0.203125 -0.28125 -0.328125q-0.1875 -0.125 -0.453125 -0.125q-0.421875 0 -0.734375 0.265625q-0.296875 0.265625 -0.296875 1.015625l0 2.109375l-0.65625 0zm4.1607056 -4.578125l0 -0.75l0.65625 0l0 0.75l-0.65625 0zm0 4.578125l0 -3.859375l0.65625 0l0 3.859375l-0.65625 0zm3.0777283 -0.578125l0.09375 0.578125q-0.28125 0.046875 -0.5 0.046875q-0.34375 0 -0.546875 -0.109375q-0.203125 -0.109375 -0.28125 -0.296875q-0.078125 -0.1875 -0.078125 -0.765625l0 -2.234375l-0.484375 0l0 -0.5l0.484375 0l0 -0.96875l0.65625 -0.390625l0 1.359375l0.65625 0l0 0.5l-0.65625 0l0 2.265625q0 0.28125 0.03125 0.359375q0.03125 0.078125 0.109375 0.125q0.078125 0.046875 0.234375 0.046875q0.109375 0 0.28125 -0.015625zm0.6488495 -4.0l0 -0.75l0.65625 0l0 0.75l-0.65625 0zm0 4.578125l0 -3.859375l0.65625 0l0 3.859375l-0.65625 0zm4.1714783 -0.484375q-0.359375 0.3125 -0.703125 0.453125q-0.34375 0.125 -0.71875 0.125q-0.640625 0 -0.984375 -0.3125q-0.34375 -0.3125 -0.34375 -0.796875q0 -0.28125 0.125 -0.515625q0.140625 -0.234375 0.34375 -0.375q0.21875 -0.15625 0.46875 -0.21875q0.203125 -0.0625 0.59375 -0.109375q0.78125 -0.09375 1.15625 -0.21875q0.015625 -0.140625 0.015625 -0.171875q0 -0.40625 -0.1875 -0.5625q-0.25 -0.21875 -0.75 -0.21875q-0.46875 0 -0.6875 0.15625q-0.21875 0.15625 -0.328125 0.578125l-0.640625 -0.09375q0.09375 -0.40625 0.296875 -0.65625q0.203125 -0.25 0.578125 -0.390625q0.375 -0.140625 0.875 -0.140625q0.5 0 0.796875 0.125q0.3125 0.109375 0.453125 0.296875q0.15625 0.171875 0.21875 0.4375q0.03125 0.171875 0.03125 0.59375l0 0.875q0 0.921875 0.03125 1.171875q0.046875 0.234375 0.171875 0.453125l-0.6875 0q-0.09375 -0.203125 -0.125 -0.484375zm-0.0625 -1.453125q-0.34375 0.140625 -1.0625 0.25q-0.40625 0.046875 -0.578125 0.125q-0.15625 0.078125 -0.25 0.21875q-0.09375 0.140625 -0.09375 0.3125q0 0.25 0.1875 0.4375q0.203125 0.171875 0.59375 0.171875q0.375 0 0.671875 -0.15625q0.296875 -0.171875 0.4375 -0.46875q0.09375 -0.21875 0.09375 -0.65625l0 -0.234375zm1.6763306 1.9375l0 -5.328125l0.640625 0l0 5.328125l-0.640625 0zm1.6714783 -4.578125l0 -0.75l0.65625 0l0 0.75l-0.65625 0zm0 4.578125l0 -3.859375l0.65625 0l0 3.859375l-0.65625 0zm1.3902283 -1.15625l0.640625 -0.09375q0.0625 0.390625 0.3125 0.59375q0.25 0.203125 0.6875 0.203125q0.453125 0 0.671875 -0.171875q0.21875 -0.1875 0.21875 -0.4375q0 -0.21875 -0.1875 -0.359375q-0.140625 -0.078125 -0.671875 -0.21875q-0.71875 -0.171875 -1.0 -0.296875q-0.28125 -0.140625 -0.421875 -0.375q-0.140625 -0.25 -0.140625 -0.53125q0 -0.25 0.109375 -0.46875q0.125 -0.21875 0.328125 -0.375q0.15625 -0.109375 0.40625 -0.1875q0.265625 -0.078125 0.578125 -0.078125q0.453125 0 0.796875 0.140625q0.34375 0.125 0.5 0.34375q0.171875 0.21875 0.234375 0.59375l-0.640625 0.09375q-0.046875 -0.296875 -0.265625 -0.453125q-0.203125 -0.171875 -0.578125 -0.171875q-0.453125 0 -0.65625 0.15625q-0.1875 0.140625 -0.1875 0.328125q0 0.140625 0.078125 0.234375q0.078125 0.109375 0.25 0.171875q0.109375 0.046875 0.578125 0.171875q0.703125 0.1875 0.96875 0.3125q0.28125 0.109375 0.4375 0.34375q0.15625 0.21875 0.15625 0.546875q0 0.328125 -0.1875 0.625q-0.1875 0.28125 -0.546875 0.453125q-0.359375 0.15625 -0.828125 0.15625q-0.75 0 -1.140625 -0.3125q-0.390625 -0.3125 -0.5 -0.9375zm6.6328125 -0.09375l0.671875 0.09375q-0.15625 0.59375 -0.59375 0.921875q-0.4375 0.328125 -1.109375 0.328125q-0.84375 0 -1.34375 -0.515625q-0.5 -0.53125 -0.5 -1.484375q0 -0.96875 0.5 -1.5q0.515625 -0.546875 1.3125 -0.546875q0.78125 0 1.265625 0.53125q0.484375 0.53125 0.484375 1.484375q0 0.0625 0 0.171875l-2.875 0q0.03125 0.640625 0.359375 0.984375q0.328125 0.328125 0.8125 0.328125q0.359375 0 0.609375 -0.1875q0.25 -0.1875 0.40625 -0.609375zm-2.15625 -1.046875l2.15625 0q-0.046875 -0.5 -0.25 -0.734375q-0.3125 -0.375 -0.8125 -0.375q-0.4375 0 -0.75 0.296875q-0.3125 0.296875 -0.34375 0.8125z" fill-rule="nonzero"/><path fill="#000000" fill-opacity="0.0" d="m104.147934 49.44688l8.4114685 0l0 0.062992096l8.407425 0" fill-rule="evenodd"/><path stroke="#000000" stroke-width="0.3989501312335958" stroke-linejoin="round" stroke-linecap="butt" d="m104.147934 49.44688l8.4114685 0l0 0.062992096l6.013733 0" fill-rule="evenodd"/><path fill="#000000" stroke="#000000" stroke-width="0.3989501312335958" stroke-linecap="butt" d="m118.573135 50.16883l1.8104706 -0.65895844l-1.8104706 -0.65895844z" fill-rule="evenodd"/><path fill="#2d8ca8" fill-opacity="0.4227" d="m120.98075 82.3461l65.5118 0l0 29.039368l-65.5118 0z" fill-rule="evenodd"/><path stroke="#000000" stroke-width="0.3989501312335958" stroke-linejoin="round" stroke-linecap="butt" d="m120.98075 82.3461l65.5118 0l0 29.039368l-65.5118 0z" fill-rule="evenodd"/><path fill="#000000" d="m134.18468 99.535706l0 -0.5625q-0.453125 0.65625 -1.234375 0.65625q-0.34375 0 -0.640625 -0.125q-0.296875 -0.140625 -0.4375 -0.34375q-0.140625 -0.203125 -0.203125 -0.484375q-0.03125 -0.1875 -0.03125 -0.609375l0 -2.390625l0.640625 0l0 2.140625q0 0.515625 0.046875 0.6875q0.0625 0.265625 0.265625 0.40625q0.203125 0.140625 0.484375 0.140625q0.296875 0 0.546875 -0.140625q0.265625 -0.15625 0.375 -0.40625q0.109375 -0.265625 0.109375 -0.765625l0 -2.0625l0.65625 0l0 3.859375l-0.578125 0zm1.5982056 1.484375l0 -5.34375l0.609375 0l0 0.5q0.203125 -0.296875 0.46875 -0.4375q0.265625 -0.15625 0.640625 -0.15625q0.5 0 0.875 0.265625q0.375 0.25 0.5625 0.71875q0.203125 0.453125 0.203125 1.0q0 0.59375 -0.21875 1.078125q-0.203125 0.46875 -0.609375 0.734375q-0.40625 0.25 -0.859375 0.25q-0.328125 0 -0.59375 -0.140625q-0.25 -0.140625 -0.421875 -0.359375l0 1.890625l-0.65625 0zm0.59375 -3.390625q0 0.734375 0.296875 1.09375q0.3125 0.359375 0.75 0.359375q0.4375 0 0.734375 -0.359375q0.3125 -0.375 0.3125 -1.15625q0 -0.734375 -0.3125 -1.09375q-0.296875 -0.375 -0.71875 -0.375q-0.40625 0 -0.734375 0.390625q-0.328125 0.390625 -0.328125 1.140625zm6.0669556 1.90625l0 -0.484375q-0.375 0.578125 -1.078125 0.578125q-0.46875 0 -0.859375 -0.25q-0.375 -0.265625 -0.59375 -0.71875q-0.21875 -0.453125 -0.21875 -1.046875q0 -0.578125 0.1875 -1.046875q0.203125 -0.484375 0.578125 -0.734375q0.390625 -0.25 0.875 -0.25q0.34375 0 0.609375 0.15625q0.28125 0.140625 0.453125 0.375l0 -1.90625l0.65625 0l0 5.328125l-0.609375 0zm-2.078125 -1.921875q0 0.734375 0.3125 1.109375q0.3125 0.359375 0.75 0.359375q0.421875 0 0.71875 -0.34375q0.3125 -0.359375 0.3125 -1.078125q0 -0.796875 -0.3125 -1.15625q-0.3125 -0.375 -0.75 -0.375q-0.4375 0 -0.734375 0.359375q-0.296875 0.34375 -0.296875 1.125zm6.2388306 1.4375q-0.359375 0.3125 -0.703125 0.453125q-0.34375 0.125 -0.71875 0.125q-0.640625 0 -0.984375 -0.3125q-0.34375 -0.3125 -0.34375 -0.796875q0 -0.28125 0.125 -0.515625q0.140625 -0.234375 0.34375 -0.375q0.21875 -0.15625 0.46875 -0.21875q0.203125 -0.0625 0.59375 -0.109375q0.78125 -0.09375 1.15625 -0.21875q0.015625 -0.140625 0.015625 -0.171875q0 -0.40625 -0.1875 -0.5625q-0.25 -0.21875 -0.75 -0.21875q-0.46875 0 -0.6875 0.15625q-0.21875 0.15625 -0.328125 0.578125l-0.640625 -0.09375q0.09375 -0.40625 0.296875 -0.65625q0.203125 -0.25 0.578125 -0.390625q0.375 -0.140625 0.875 -0.140625q0.5 0 0.796875 0.125q0.3125 0.109375 0.453125 0.296875q0.15625 0.171875 0.21875 0.4375q0.03125 0.171875 0.03125 0.59375l0 0.875q0 0.921875 0.03125 1.171875q0.046875 0.234375 0.171875 0.453125l-0.6875 0q-0.09375 -0.203125 -0.125 -0.484375zm-0.0625 -1.453125q-0.34375 0.140625 -1.0625 0.25q-0.40625 0.046875 -0.578125 0.125q-0.15625 0.078125 -0.25 0.21875q-0.09375 0.140625 -0.09375 0.3125q0 0.25 0.1875 0.4375q0.203125 0.171875 0.59375 0.171875q0.375 0 0.671875 -0.15625q0.296875 -0.171875 0.4375 -0.46875q0.09375 -0.21875 0.09375 -0.65625l0 -0.234375zm3.1138306 1.359375l0.09375 0.578125q-0.28125 0.046875 -0.5 0.046875q-0.34375 0 -0.546875 -0.109375q-0.203125 -0.109375 -0.28125 -0.296875q-0.078125 -0.1875 -0.078125 -0.765625l0 -2.234375l-0.484375 0l0 -0.5l0.484375 0l0 -0.96875l0.65625 -0.390625l0 1.359375l0.65625 0l0 0.5l-0.65625 0l0 2.265625q0 0.28125 0.03125 0.359375q0.03125 0.078125 0.109375 0.125q0.078125 0.046875 0.234375 0.046875q0.109375 0 0.28125 -0.015625zm3.2894745 -0.671875l0.671875 0.09375q-0.15625 0.59375 -0.59375 0.921875q-0.4375 0.328125 -1.109375 0.328125q-0.84375 0 -1.34375 -0.515625q-0.5 -0.53125 -0.5 -1.484375q0 -0.96875 0.5 -1.5q0.515625 -0.546875 1.3125 -0.546875q0.78125 0 1.265625 0.53125q0.484375 0.53125 0.484375 1.484375q0 0.0625 0 0.171875l-2.875 0q0.03125 0.640625 0.359375 0.984375q0.328125 0.328125 0.8125 0.328125q0.359375 0 0.609375 -0.1875q0.25 -0.1875 0.40625 -0.609375zm-2.15625 -1.046875l2.15625 0q-0.046875 -0.5 -0.25 -0.734375q-0.3125 -0.375 -0.8125 -0.375q-0.4375 0 -0.75 0.296875q-0.3125 0.296875 -0.34375 0.8125zm5.715805 2.296875l0 -3.859375l0.59375 0l0 0.53125q0.1875 -0.28125 0.484375 -0.453125q0.296875 -0.171875 0.6875 -0.171875q0.421875 0 0.703125 0.1875q0.28125 0.171875 0.390625 0.484375q0.453125 -0.671875 1.1875 -0.671875q0.578125 0 0.890625 0.328125q0.3125 0.3125 0.3125 0.96875l0 2.65625l-0.65625 0l0 -2.4375q0 -0.390625 -0.0625 -0.5625q-0.0625 -0.171875 -0.234375 -0.28125q-0.171875 -0.109375 -0.390625 -0.109375q-0.40625 0 -0.6875 0.28125q-0.265625 0.265625 -0.265625 0.859375l0 2.25l-0.65625 0l0 -2.515625q0 -0.4375 -0.15625 -0.65625q-0.15625 -0.21875 -0.515625 -0.21875q-0.28125 0 -0.515625 0.15625q-0.234375 0.140625 -0.34375 0.421875q-0.109375 0.28125 -0.109375 0.8125l0 2.0l-0.65625 0zm5.9741364 -1.9375q0 -1.0625 0.59375 -1.578125q0.5 -0.4375 1.21875 -0.4375q0.796875 0 1.296875 0.53125q0.515625 0.515625 0.515625 1.4375q0 0.75 -0.234375 1.171875q-0.21875 0.421875 -0.65625 0.671875q-0.421875 0.234375 -0.921875 0.234375q-0.8125 0 -1.3125 -0.515625q-0.5 -0.53125 -0.5 -1.515625zm0.671875 0q0 0.75 0.3125 1.125q0.328125 0.359375 0.828125 0.359375q0.484375 0 0.796875 -0.359375q0.328125 -0.375 0.328125 -1.140625q0 -0.71875 -0.328125 -1.078125q-0.3125 -0.375 -0.796875 -0.375q-0.5 0 -0.828125 0.375q-0.3125 0.359375 -0.3125 1.09375zm6.2232056 1.9375l0 -0.484375q-0.375 0.578125 -1.078125 0.578125q-0.46875 0 -0.859375 -0.25q-0.375 -0.265625 -0.59375 -0.71875q-0.21875 -0.453125 -0.21875 -1.046875q0 -0.578125 0.1875 -1.046875q0.203125 -0.484375 0.578125 -0.734375q0.390625 -0.25 0.875 -0.25q0.34375 0 0.609375 0.15625q0.28125 0.140625 0.453125 0.375l0 -1.90625l0.65625 0l0 5.328125l-0.609375 0zm-2.078125 -1.921875q0 0.734375 0.3125 1.109375q0.3125 0.359375 0.75 0.359375q0.421875 0 0.71875 -0.34375q0.3125 -0.359375 0.3125 -1.078125q0 -0.796875 -0.3125 -1.15625q-0.3125 -0.375 -0.75 -0.375q-0.4375 0 -0.734375 0.359375q-0.296875 0.34375 -0.296875 1.125zm6.3638306 0.671875l0.671875 0.09375q-0.15625 0.59375 -0.59375 0.921875q-0.4375 0.328125 -1.109375 0.328125q-0.84375 0 -1.34375 -0.515625q-0.5 -0.53125 -0.5 -1.484375q0 -0.96875 0.5 -1.5q0.515625 -0.546875 1.3125 -0.546875q0.78125 0 1.265625 0.53125q0.484375 0.53125 0.484375 1.484375q0 0.0625 0 0.171875l-2.875 0q0.03125 0.640625 0.359375 0.984375q0.328125 0.328125 0.8125 0.328125q0.359375 0 0.609375 -0.1875q0.25 -0.1875 0.40625 -0.609375zm-2.15625 -1.046875l2.15625 0q-0.046875 -0.5 -0.25 -0.734375q-0.3125 -0.375 -0.8125 -0.375q-0.4375 0 -0.75 0.296875q-0.3125 0.296875 -0.34375 0.8125zm3.6450806 2.296875l0 -5.328125l0.640625 0l0 5.328125l-0.640625 0z" fill-rule="nonzero"/><path fill="#000000" fill-opacity="0.0" d="m153.73665 63.966564l0 9.195751l0.06300354 0l0 9.197952" fill-rule="evenodd"/><path stroke="#000000" stroke-width="0.3989501312335958" stroke-linejoin="round" stroke-linecap="butt" d="m153.73665 66.36027l0 6.8020477l0.06298828 0l0 9.197952" fill-rule="evenodd"/><path fill="#000000" stroke="#000000" stroke-width="0.3989501312335958" stroke-linecap="butt" d="m154.39561 66.36027l-0.65896606 -1.8104782l-0.6589508 1.8104782z" fill-rule="evenodd"/><path fill="#000000" fill-opacity="0.0" d="m186.49255 96.86578l131.93701 0l0 -32.913383" fill-rule="evenodd"/><path stroke="#000000" stroke-width="0.3989501312335958" stroke-linejoin="round" stroke-linecap="butt" d="m188.88626 96.86578l129.5433 0l0 -32.913387" fill-rule="evenodd"/><path fill="#000000" stroke="#000000" stroke-width="0.3989501312335958" stroke-linecap="butt" d="m188.88626 96.206825l-1.8104858 0.65895844l1.8104858 0.65895844z" fill-rule="evenodd"/><path fill="#000000" fill-opacity="0.0" d="m17.264452 17.283464l122.897644 0l0 18.393702l-122.897644 0z" fill-rule="evenodd"/><path fill="#000000" d="m20.748827 27.453384l0 -3.859375l0.59375 0l0 0.578125q0.21875 -0.40625 0.40625 -0.53125q0.203125 -0.140625 0.421875 -0.140625q0.328125 0 0.671875 0.21875l-0.21875 0.59375q-0.234375 -0.140625 -0.484375 -0.140625q-0.21875 0 -0.390625 0.140625q-0.15625 0.125 -0.234375 0.359375q-0.109375 0.34375 -0.109375 0.765625l0 2.015625l-0.65625 0zm5.138199 -1.25l0.671875 0.09375q-0.15625 0.59375 -0.59375 0.921875q-0.4375 0.328125 -1.109375 0.328125q-0.84375 0 -1.34375 -0.515625q-0.5 -0.53125 -0.5 -1.484375q0 -0.96875 0.5 -1.5q0.515625 -0.546875 1.3125 -0.546875q0.78125 0 1.265625 0.53125q0.484375 0.53125 0.484375 1.484375q0 0.0625 0 0.171875l-2.875 0q0.03125 0.640625 0.359375 0.984375q0.328125 0.328125 0.8125 0.328125q0.359375 0 0.609375 -0.1875q0.25 -0.1875 0.40625 -0.609375zm-2.15625 -1.046875l2.15625 0q-0.046875 -0.5 -0.25 -0.734375q-0.3125 -0.375 -0.8125 -0.375q-0.4375 0 -0.75 0.296875q-0.3125 0.296875 -0.34375 0.8125zm3.6450806 3.78125l0 -5.34375l0.609375 0l0 0.5q0.203125 -0.296875 0.46875 -0.4375q0.265625 -0.15625 0.640625 -0.15625q0.5 0 0.875 0.265625q0.375 0.25 0.5625 0.71875q0.203125 0.453125 0.203125 1.0q0 0.59375 -0.21875 1.078125q-0.203125 0.46875 -0.609375 0.734375q-0.40625 0.25 -0.859375 0.25q-0.328125 0 -0.59375 -0.140625q-0.25 -0.140625 -0.421875 -0.359375l0 1.890625l-0.65625 0zm0.59375 -3.390625q0 0.734375 0.296875 1.09375q0.3125 0.359375 0.75 0.359375q0.4375 0 0.734375 -0.359375q0.3125 -0.375 0.3125 -1.15625q0 -0.734375 -0.3125 -1.09375q-0.296875 -0.375 -0.71875 -0.375q-0.40625 0 -0.734375 0.390625q-0.328125 0.390625 -0.328125 1.140625zm6.2075787 0.65625l0.671875 0.09375q-0.15625 0.59375 -0.59375 0.921875q-0.4375 0.328125 -1.109375 0.328125q-0.84375 0 -1.3437481 -0.515625q-0.5 -0.53125 -0.5 -1.484375q0 -0.96875 0.5 -1.5q0.5156231 -0.546875 1.3124981 -0.546875q0.78125 0 1.265625 0.53125q0.484375 0.53125 0.484375 1.484375q0 0.0625 0 0.171875l-2.874998 0q0.031248093 0.640625 0.3593731 0.984375q0.328125 0.328125 0.8125 0.328125q0.359375 0 0.609375 -0.1875q0.25 -0.1875 0.40625 -0.609375zm-2.15625 -1.046875l2.15625 0q-0.046875 -0.5 -0.25 -0.734375q-0.3125 -0.375 -0.8125 -0.375q-0.4375 0 -0.75 0.296875q-0.3125 0.296875 -0.34375 0.8125zm6.1763306 1.8125q-0.359375 0.3125 -0.703125 0.453125q-0.34375 0.125 -0.71875 0.125q-0.640625 0 -0.984375 -0.3125q-0.34375 -0.3125 -0.34375 -0.796875q0 -0.28125 0.125 -0.515625q0.140625 -0.234375 0.34375 -0.375q0.21875 -0.15625 0.46875 -0.21875q0.203125 -0.0625 0.59375 -0.109375q0.78125 -0.09375 1.15625 -0.21875q0.015625 -0.140625 0.015625 -0.171875q0 -0.40625 -0.1875 -0.5625q-0.25 -0.21875 -0.75 -0.21875q-0.46875 0 -0.6875 0.15625q-0.21875 0.15625 -0.328125 0.578125l-0.640625 -0.09375q0.09375 -0.40625 0.296875 -0.65625q0.203125 -0.25 0.578125 -0.390625q0.375 -0.140625 0.875 -0.140625q0.5 0 0.796875 0.125q0.3125 0.109375 0.453125 0.296875q0.15625 0.171875 0.21875 0.4375q0.03125 0.171875 0.03125 0.59375l0 0.875q0 0.921875 0.03125 1.171875q0.046875 0.234375 0.171875 0.453125l-0.6875 0q-0.09375 -0.203125 -0.125 -0.484375zm-0.0625 -1.453125q-0.34375 0.140625 -1.0625 0.25q-0.40625 0.046875 -0.578125 0.125q-0.15625 0.078125 -0.25 0.21875q-0.09375 0.140625 -0.09375 0.3125q0 0.25 0.1875 0.4375q0.203125 0.171875 0.59375 0.171875q0.375 0 0.671875 -0.15625q0.296875 -0.171875 0.4375 -0.46875q0.09375 -0.21875 0.09375 -0.65625l0 -0.234375zm3.1138306 1.359375l0.09375 0.578125q-0.28125 0.046875 -0.5 0.046875q-0.34375 0 -0.546875 -0.109375q-0.203125 -0.109375 -0.28125 -0.296875q-0.078125 -0.1875 -0.078125 -0.765625l0 -2.234375l-0.484375 0l0 -0.5l0.484375 0l0 -0.96875l0.65625 -0.390625l0 1.359375l0.65625 0l0 0.5l-0.65625 0l0 2.265625q0 0.28125 0.03125 0.359375q0.03125 0.078125 0.109375 0.125q0.078125 0.046875 0.234375 0.046875q0.109375 0 0.28125 -0.015625zm2.860199 0.578125l0 -3.359375l-0.578125 0l0 -0.5l0.578125 0l0 -0.421875q0 -0.390625 0.078125 -0.578125q0.09375 -0.25 0.328125 -0.40625q0.234375 -0.15625 0.671875 -0.15625q0.28125 0 0.609375 0.0625l-0.09375 0.5625q-0.203125 -0.03125 -0.390625 -0.03125q-0.296875 0 -0.421875 0.125q-0.125 0.125 -0.125 0.484375l0 0.359375l0.75 0l0 0.5l-0.75 0l0 3.359375l-0.65625 0zm1.6800995 -1.9375q0 -1.0625 0.59375 -1.578125q0.5 -0.4375 1.21875 -0.4375q0.796875 0 1.296875 0.53125q0.515625 0.515625 0.515625 1.4375q0 0.75 -0.234375 1.171875q-0.21875 0.421875 -0.65625 0.671875q-0.421875 0.234375 -0.921875 0.234375q-0.8125 0 -1.3125 -0.515625q-0.5 -0.53125 -0.5 -1.515625zm0.671875 0q0 0.75 0.3125 1.125q0.328125 0.359375 0.828125 0.359375q0.484375 0 0.796875 -0.359375q0.328125 -0.375 0.328125 -1.140625q0 -0.71875 -0.328125 -1.078125q-0.3125 -0.375 -0.796875 -0.375q-0.5 0 -0.828125 0.375q-0.3125 0.359375 -0.3125 1.09375zm3.7075806 1.9375l0 -3.859375l0.59375 0l0 0.578125q0.21875 -0.40625 0.40625 -0.53125q0.203125 -0.140625 0.421875 -0.140625q0.328125 0 0.671875 0.21875l-0.21875 0.59375q-0.234375 -0.140625 -0.484375 -0.140625q-0.21875 0 -0.390625 0.140625q-0.15625 0.125 -0.234375 0.359375q-0.109375 0.34375 -0.109375 0.765625l0 2.015625l-0.65625 0zm7.0839233 -0.484375q-0.359375 0.3125 -0.703125 0.453125q-0.34375 0.125 -0.71875 0.125q-0.640625 0 -0.984375 -0.3125q-0.34375 -0.3125 -0.34375 -0.796875q0 -0.28125 0.125 -0.515625q0.140625 -0.234375 0.34375 -0.375q0.21875 -0.15625 0.46875 -0.21875q0.203125 -0.0625 0.59375 -0.109375q0.78125 -0.09375 1.15625 -0.21875q0.015625 -0.140625 0.015625 -0.171875q0 -0.40625 -0.1875 -0.5625q-0.25 -0.21875 -0.75 -0.21875q-0.46875 0 -0.6875 0.15625q-0.21875 0.15625 -0.328125 0.578125l-0.640625 -0.09375q0.09375 -0.40625 0.296875 -0.65625q0.203125 -0.25 0.578125 -0.390625q0.375 -0.140625 0.875 -0.140625q0.5 0 0.796875 0.125q0.3125 0.109375 0.453125 0.296875q0.15625 0.171875 0.21875 0.4375q0.03125 0.171875 0.03125 0.59375l0 0.875q0 0.921875 0.03125 1.171875q0.046875 0.234375 0.171875 0.453125l-0.6875 0q-0.09375 -0.203125 -0.125 -0.484375zm-0.0625 -1.453125q-0.34375 0.140625 -1.0625 0.25q-0.40625 0.046875 -0.578125 0.125q-0.15625 0.078125 -0.25 0.21875q-0.09375 0.140625 -0.09375 0.3125q0 0.25 0.1875 0.4375q0.203125 0.171875 0.59375 0.171875q0.375 0 0.671875 -0.15625q0.296875 -0.171875 0.4375 -0.46875q0.09375 -0.21875 0.09375 -0.65625l0 -0.234375zm3.747055 1.9375l0 -3.859375l0.59375 0l0 0.546875q0.421875 -0.640625 1.234375 -0.640625q0.34375 0 0.640625 0.125q0.296875 0.125 0.4375 0.328125q0.140625 0.203125 0.203125 0.484375q0.03125 0.1875 0.03125 0.640625l0 2.375l-0.640625 0l0 -2.34375q0 -0.40625 -0.078125 -0.59375q-0.078125 -0.203125 -0.28125 -0.328125q-0.1875 -0.125 -0.453125 -0.125q-0.421875 0 -0.734375 0.265625q-0.296875 0.265625 -0.296875 1.015625l0 2.109375l-0.65625 0zm6.6919556 0l0 -0.5625q-0.453125 0.65625 -1.234375 0.65625q-0.34375 0 -0.640625 -0.125q-0.296875 -0.140625 -0.4375 -0.34375q-0.140625 -0.203125 -0.203125 -0.484375q-0.03125 -0.1875 -0.03125 -0.609375l0 -2.390625l0.640625 0l0 2.140625q0 0.515625 0.046875 0.6875q0.0625 0.265625 0.265625 0.40625q0.203125 0.140625 0.484375 0.140625q0.296875 0 0.546875 -0.140625q0.265625 -0.15625 0.375 -0.40625q0.109375 -0.265625 0.109375 -0.765625l0 -2.0625l0.65625 0l0 3.859375l-0.578125 0zm1.5982056 0l0 -3.859375l0.59375 0l0 0.53125q0.1875 -0.28125 0.484375 -0.453125q0.296875 -0.171875 0.6875 -0.171875q0.421875 0 0.703125 0.1875q0.28125 0.171875 0.390625 0.484375q0.453125 -0.671875 1.1875 -0.671875q0.578125 0 0.890625 0.328125q0.3125 0.3125 0.3125 0.96875l0 2.65625l-0.65625 0l0 -2.4375q0 -0.390625 -0.0625 -0.5625q-0.0625 -0.171875 -0.234375 -0.28125q-0.171875 -0.109375 -0.390625 -0.109375q-0.40625 0 -0.6875 0.28125q-0.265625 0.265625 -0.265625 0.859375l0 2.25l-0.65625 0l0 -2.515625q0 -0.4375 -0.15625 -0.65625q-0.15625 -0.21875 -0.515625 -0.21875q-0.28125 0 -0.515625 0.15625q-0.234375 0.140625 -0.34375 0.421875q-0.109375 0.28125 -0.109375 0.8125l0 2.0l-0.65625 0zm6.8178864 0l-0.609375 0l0 -5.328125l0.65625 0l0 1.890625q0.421875 -0.515625 1.0625 -0.515625q0.359375 0 0.671875 0.140625q0.3125 0.140625 0.515625 0.40625q0.21875 0.265625 0.328125 0.640625q0.125 0.359375 0.125 0.78125q0 0.984375 -0.5 1.53125q-0.484375 0.546875 -1.171875 0.546875q-0.6875 0 -1.078125 -0.578125l0 0.484375zm0 -1.96875q0 0.703125 0.1875 1.015625q0.3125 0.5 0.828125 0.5q0.4375 0 0.75 -0.375q0.3125 -0.375 0.3125 -1.109375q0 -0.75 -0.3125 -1.109375q-0.296875 -0.359375 -0.71875 -0.359375q-0.421875 0 -0.734375 0.375q-0.3125 0.359375 -0.3125 1.0625zm6.1919556 0.71875l0.671875 0.09375q-0.15625 0.59375 -0.59375 0.921875q-0.4375 0.328125 -1.109375 0.328125q-0.84375 0 -1.34375 -0.515625q-0.5 -0.53125 -0.5 -1.484375q0 -0.96875 0.5 -1.5q0.515625 -0.546875 1.3125 -0.546875q0.78125 0 1.265625 0.53125q0.484375 0.53125 0.484375 1.484375q0 0.0625 0 0.171875l-2.875 0q0.03125 0.640625 0.359375 0.984375q0.328125 0.328125 0.8125 0.328125q0.359375 0 0.609375 -0.1875q0.25 -0.1875 0.40625 -0.609375zm-2.15625 -1.046875l2.15625 0q-0.046875 -0.5 -0.25 -0.734375q-0.3125 -0.375 -0.8125 -0.375q-0.4375 0 -0.75 0.296875q-0.3125 0.296875 -0.34375 0.8125zm3.6450806 2.296875l0 -3.859375l0.59375 0l0 0.578125q0.21875 -0.40625 0.40625 -0.53125q0.203125 -0.140625 0.421875 -0.140625q0.328125 0 0.671875 0.21875l-0.21875 0.59375q-0.234375 -0.140625 -0.484375 -0.140625q-0.21875 0 -0.390625 0.140625q-0.15625 0.125 -0.234375 0.359375q-0.109375 0.34375 -0.109375 0.765625l0 2.015625l-0.65625 0zm4.3182983 -1.9375q0 -1.0625 0.59375 -1.578125q0.5 -0.4375 1.21875 -0.4375q0.796875 0 1.296875 0.53125q0.515625 0.515625 0.515625 1.4375q0 0.75 -0.234375 1.171875q-0.21875 0.421875 -0.65625 0.671875q-0.421875 0.234375 -0.921875 0.234375q-0.8125 0 -1.3125 -0.515625q-0.5 -0.53125 -0.5 -1.515625zm0.671875 0q0 0.75 0.3125 1.125q0.328125 0.359375 0.828125 0.359375q0.484375 0 0.796875 -0.359375q0.328125 -0.375 0.328125 -1.140625q0 -0.71875 -0.328125 -1.078125q-0.3125 -0.375 -0.796875 -0.375q-0.5 0 -0.828125 0.375q-0.3125 0.359375 -0.3125 1.09375zm3.8638306 1.9375l0 -3.359375l-0.578125 0l0 -0.5l0.578125 0l0 -0.421875q0 -0.390625 0.078125 -0.578125q0.09375 -0.25 0.328125 -0.40625q0.234375 -0.15625 0.671875 -0.15625q0.28125 0 0.609375 0.0625l-0.09375 0.5625q-0.203125 -0.03125 -0.390625 -0.03125q-0.296875 0 -0.421875 0.125q-0.125 0.125 -0.125 0.484375l0 0.359375l0.75 0l0 0.5l-0.75 0l0 3.359375l-0.65625 0zm6.641449 -1.25l0.671875 0.09375q-0.15625 0.59375 -0.59375 0.921875q-0.4375 0.328125 -1.109375 0.328125q-0.84375 0 -1.34375 -0.515625q-0.5 -0.53125 -0.5 -1.484375q0 -0.96875 0.5 -1.5q0.515625 -0.546875 1.3125 -0.546875q0.78125 0 1.265625 0.53125q0.484375 0.53125 0.484375 1.484375q0 0.0625 0 0.171875l-2.875 0q0.03125 0.640625 0.359375 0.984375q0.328125 0.328125 0.8125 0.328125q0.359375 0 0.609375 -0.1875q0.25 -0.1875 0.40625 -0.609375zm-2.15625 -1.046875l2.15625 0q-0.046875 -0.5 -0.25 -0.734375q-0.3125 -0.375 -0.8125 -0.375q-0.4375 0 -0.75 0.296875q-0.3125 0.296875 -0.34375 0.8125zm3.6450806 3.78125l0 -5.34375l0.609375 0l0 0.5q0.203125 -0.296875 0.46875 -0.4375q0.265625 -0.15625 0.640625 -0.15625q0.5 0 0.875 0.265625q0.375 0.25 0.5625 0.71875q0.203125 0.453125 0.203125 1.0q0 0.59375 -0.21875 1.078125q-0.203125 0.46875 -0.609375 0.734375q-0.40625 0.25 -0.859375 0.25q-0.328125 0 -0.59375 -0.140625q-0.25 -0.140625 -0.421875 -0.359375l0 1.890625l-0.65625 0zm0.59375 -3.390625q0 0.734375 0.296875 1.09375q0.3125 0.359375 0.75 0.359375q0.4375 0 0.734375 -0.359375q0.3125 -0.375 0.3125 -1.15625q0 -0.734375 -0.3125 -1.09375q-0.296875 -0.375 -0.71875 -0.375q-0.40625 0 -0.734375 0.390625q-0.328125 0.390625 -0.328125 1.140625zm3.5669556 -2.671875l0 -0.75l0.65625 0l0 0.75l-0.65625 0zm0 4.578125l0 -3.859375l0.65625 0l0 3.859375l-0.65625 0zm1.3902283 -1.15625l0.640625 -0.09375q0.0625 0.390625 0.3125 0.59375q0.25 0.203125 0.6875 0.203125q0.453125 0 0.671875 -0.171875q0.21875 -0.1875 0.21875 -0.4375q0 -0.21875 -0.1875 -0.359375q-0.140625 -0.078125 -0.671875 -0.21875q-0.71875 -0.171875 -1.0 -0.296875q-0.28125 -0.140625 -0.421875 -0.375q-0.140625 -0.25 -0.140625 -0.53125q0 -0.25 0.109375 -0.46875q0.125 -0.21875 0.328125 -0.375q0.15625 -0.109375 0.40625 -0.1875q0.265625 -0.078125 0.578125 -0.078125q0.453125 0 0.796875 0.140625q0.34375 0.125 0.5 0.34375q0.171875 0.21875 0.234375 0.59375l-0.640625 0.09375q-0.046875 -0.296875 -0.265625 -0.453125q-0.203125 -0.171875 -0.578125 -0.171875q-0.453125 0 -0.65625 0.15625q-0.1875 0.140625 -0.1875 0.328125q0 0.140625 0.078125 0.234375q0.078125 0.109375 0.25 0.171875q0.109375 0.046875 0.578125 0.171875q0.703125 0.1875 0.96875 0.3125q0.28125 0.109375 0.4375 0.34375q0.15625 0.21875 0.15625 0.546875q0 0.328125 -0.1875 0.625q-0.1875 0.28125 -0.546875 0.453125q-0.359375 0.15625 -0.828125 0.15625q-0.75 0 -1.140625 -0.3125q-0.390625 -0.3125 -0.5 -0.9375zm3.7421875 -0.78125q0 -1.0625 0.59375 -1.578125q0.5 -0.4375 1.21875 -0.4375q0.796875 0 1.296875 0.53125q0.515625 0.515625 0.515625 1.4375q0 0.75 -0.234375 1.171875q-0.21875 0.421875 -0.65625 0.671875q-0.421875 0.234375 -0.921875 0.234375q-0.8125 0 -1.3125 -0.515625q-0.5 -0.53125 -0.5 -1.515625zm0.671875 0q0 0.75 0.3125 1.125q0.328125 0.359375 0.828125 0.359375q0.484375 0 0.796875 -0.359375q0.328125 -0.375 0.328125 -1.140625q0 -0.71875 -0.328125 -1.078125q-0.3125 -0.375 -0.796875 -0.375q-0.5 0 -0.828125 0.375q-0.3125 0.359375 -0.3125 1.09375zm6.2232056 1.9375l0 -0.484375q-0.375 0.578125 -1.078125 0.578125q-0.46875 0 -0.859375 -0.25q-0.375 -0.265625 -0.59375 -0.71875q-0.21875 -0.453125 -0.21875 -1.046875q0 -0.578125 0.1875 -1.046875q0.203125 -0.484375 0.578125 -0.734375q0.390625 -0.25 0.875 -0.25q0.34375 0 0.609375 0.15625q0.28125 0.140625 0.453125 0.375l0 -1.90625l0.65625 0l0 5.328125l-0.609375 0zm-2.078125 -1.921875q0 0.734375 0.3125 1.109375q0.3125 0.359375 0.75 0.359375q0.421875 0 0.71875 -0.34375q0.3125 -0.359375 0.3125 -1.078125q0 -0.796875 -0.3125 -1.15625q-0.3125 -0.375 -0.75 -0.375q-0.4375 0 -0.734375 0.359375q-0.296875 0.34375 -0.296875 1.125zm6.3638306 0.671875l0.671875 0.09375q-0.15625 0.59375 -0.59375 0.921875q-0.4375 0.328125 -1.109375 0.328125q-0.84375 0 -1.34375 -0.515625q-0.5 -0.53125 -0.5 -1.484375q0 -0.96875 0.5 -1.5q0.515625 -0.546875 1.3125 -0.546875q0.78125 0 1.265625 0.53125q0.484375 0.53125 0.484375 1.484375q0 0.0625 0 0.171875l-2.875 0q0.03125 0.640625 0.359375 0.984375q0.328125 0.328125 0.8125 0.328125q0.359375 0 0.609375 -0.1875q0.25 -0.1875 0.40625 -0.609375zm-2.15625 -1.046875l2.15625 0q-0.046875 -0.5 -0.25 -0.734375q-0.3125 -0.375 -0.8125 -0.375q-0.4375 0 -0.75 0.296875q-0.3125 0.296875 -0.34375 0.8125zm3.3950806 1.140625l0.640625 -0.09375q0.0625 0.390625 0.3125 0.59375q0.25 0.203125 0.6875 0.203125q0.453125 0 0.671875 -0.171875q0.21875 -0.1875 0.21875 -0.4375q0 -0.21875 -0.1875 -0.359375q-0.140625 -0.078125 -0.671875 -0.21875q-0.71875 -0.171875 -1.0 -0.296875q-0.28125 -0.140625 -0.421875 -0.375q-0.140625 -0.25 -0.140625 -0.53125q0 -0.25 0.109375 -0.46875q0.125 -0.21875 0.328125 -0.375q0.15625 -0.109375 0.40625 -0.1875q0.265625 -0.078125 0.578125 -0.078125q0.453125 0 0.796875 0.140625q0.34375 0.125 0.5 0.34375q0.171875 0.21875 0.234375 0.59375l-0.640625 0.09375q-0.046875 -0.296875 -0.265625 -0.453125q-0.203125 -0.171875 -0.578125 -0.171875q-0.453125 0 -0.65625 0.15625q-0.1875 0.140625 -0.1875 0.328125q0 0.140625 0.078125 0.234375q0.078125 0.109375 0.25 0.171875q0.109375 0.046875 0.578125 0.171875q0.703125 0.1875 0.96875 0.3125q0.28125 0.109375 0.4375 0.34375q0.15625 0.21875 0.15625 0.546875q0 0.328125 -0.1875 0.625q-0.1875 0.28125 -0.546875 0.453125q-0.359375 0.15625 -0.828125 0.15625q-0.75 0 -1.140625 -0.3125q-0.390625 -0.3125 -0.5 -0.9375zm4.1640625 -1.96875l0 -0.734375l0.75 0l0 0.734375l-0.75 0zm0 3.125l0 -0.75l0.75 0l0 0.75l-0.75 0z" fill-rule="nonzero"/></g></svg>